<mxfile host="www.draw.io" modified="2019-12-26T01:22:38.151Z" agent="Mozilla/5.0 (Windows NT 10.0; Win64; x64) AppleWebKit/537.36 (KHTML, like Gecko) Chrome/77.0.3865.120 Safari/537.36 OPR/64.0.3417.150" etag="kQDL_BC2JTw01Isz0h-F" version="12.4.3" type="github" pages="16">
  <diagram id="E4K28rpV8c_hhoIFJY6G" name="terminal obj">
    <mxGraphModel dx="1478" dy="640" grid="1" gridSize="10" guides="1" tooltips="1" connect="1" arrows="1" fold="1" page="1" pageScale="1" pageWidth="827" pageHeight="1169" math="0" shadow="0">
      <root>
        <mxCell id="-mlQM_bb0bjhj9-oT6BO-0"/>
        <mxCell id="-mlQM_bb0bjhj9-oT6BO-1" parent="-mlQM_bb0bjhj9-oT6BO-0"/>
        <mxCell id="-mlQM_bb0bjhj9-oT6BO-2" value="1" style="text;html=1;strokeColor=none;fillColor=none;align=center;verticalAlign=middle;whiteSpace=wrap;rounded=0;fontSize=34;fontColor=#EA6B66;" parent="-mlQM_bb0bjhj9-oT6BO-1" vertex="1">
          <mxGeometry x="360" y="201" width="40" height="40" as="geometry"/>
        </mxCell>
        <mxCell id="aftcNhZEhNzmt_of3JwT-14" value="X" style="text;html=1;strokeColor=none;fillColor=none;align=center;verticalAlign=middle;whiteSpace=wrap;rounded=0;fontSize=34;" parent="-mlQM_bb0bjhj9-oT6BO-1" vertex="1">
          <mxGeometry x="240" y="201" width="40" height="40" as="geometry"/>
        </mxCell>
        <mxCell id="aftcNhZEhNzmt_of3JwT-15" style="edgeStyle=orthogonalEdgeStyle;rounded=0;orthogonalLoop=1;jettySize=auto;html=1;exitX=0;exitY=0.5;exitDx=0;exitDy=0;entryX=1;entryY=0.5;entryDx=0;entryDy=0;fontSize=34;endArrow=none;endFill=0;startArrow=classic;startFill=1;dashed=1;" parent="-mlQM_bb0bjhj9-oT6BO-1" source="-mlQM_bb0bjhj9-oT6BO-2" target="aftcNhZEhNzmt_of3JwT-14" edge="1">
          <mxGeometry relative="1" as="geometry">
            <mxPoint x="324.997619047619" y="140.99809523809517" as="sourcePoint"/>
            <mxPoint x="324.997619047619" y="220.99809523809517" as="targetPoint"/>
          </mxGeometry>
        </mxCell>
        <mxCell id="aftcNhZEhNzmt_of3JwT-16" value="&lt;span style=&quot;font-size: 24px&quot;&gt;!&lt;sub&gt;X&lt;/sub&gt;&lt;/span&gt;" style="text;html=1;strokeColor=none;fillColor=none;align=center;verticalAlign=middle;whiteSpace=wrap;rounded=0;fontSize=34;" parent="-mlQM_bb0bjhj9-oT6BO-1" vertex="1">
          <mxGeometry x="295" y="190" width="50" height="20" as="geometry"/>
        </mxCell>
      </root>
    </mxGraphModel>
  </diagram>
  <diagram id="JRqJvcj-uZcL3p5y04m-" name="initial obj">
    <mxGraphModel dx="1478" dy="640" grid="1" gridSize="10" guides="1" tooltips="1" connect="1" arrows="1" fold="1" page="1" pageScale="1" pageWidth="827" pageHeight="1169" math="0" shadow="0">
      <root>
        <mxCell id="YACqgmipO-Npx6hAV-U7-0"/>
        <mxCell id="YACqgmipO-Npx6hAV-U7-1" parent="YACqgmipO-Npx6hAV-U7-0"/>
        <mxCell id="YACqgmipO-Npx6hAV-U7-2" value="0" style="text;html=1;strokeColor=none;fillColor=none;align=center;verticalAlign=middle;whiteSpace=wrap;rounded=0;fontSize=34;fontColor=#EA6B66;" parent="YACqgmipO-Npx6hAV-U7-1" vertex="1">
          <mxGeometry x="360" y="201" width="40" height="40" as="geometry"/>
        </mxCell>
        <mxCell id="YACqgmipO-Npx6hAV-U7-3" value="X" style="text;html=1;strokeColor=none;fillColor=none;align=center;verticalAlign=middle;whiteSpace=wrap;rounded=0;fontSize=34;" parent="YACqgmipO-Npx6hAV-U7-1" vertex="1">
          <mxGeometry x="240" y="201" width="40" height="40" as="geometry"/>
        </mxCell>
        <mxCell id="YACqgmipO-Npx6hAV-U7-4" style="edgeStyle=orthogonalEdgeStyle;rounded=0;orthogonalLoop=1;jettySize=auto;html=1;exitX=0;exitY=0.5;exitDx=0;exitDy=0;entryX=1;entryY=0.5;entryDx=0;entryDy=0;fontSize=34;endArrow=classic;endFill=1;startArrow=none;startFill=0;dashed=1;" parent="YACqgmipO-Npx6hAV-U7-1" source="YACqgmipO-Npx6hAV-U7-2" target="YACqgmipO-Npx6hAV-U7-3" edge="1">
          <mxGeometry relative="1" as="geometry">
            <mxPoint x="324.997619047619" y="140.99809523809517" as="sourcePoint"/>
            <mxPoint x="324.997619047619" y="220.99809523809517" as="targetPoint"/>
          </mxGeometry>
        </mxCell>
        <mxCell id="YACqgmipO-Npx6hAV-U7-5" value="&lt;span style=&quot;font-size: 24px&quot;&gt;?&lt;sub&gt;X&lt;/sub&gt;&lt;/span&gt;" style="text;html=1;strokeColor=none;fillColor=none;align=center;verticalAlign=middle;whiteSpace=wrap;rounded=0;fontSize=34;" parent="YACqgmipO-Npx6hAV-U7-1" vertex="1">
          <mxGeometry x="295" y="190" width="50" height="20" as="geometry"/>
        </mxCell>
      </root>
    </mxGraphModel>
  </diagram>
  <diagram id="_rq0IS0nR5gPSkmiEV3A" name="init&amp;term sets">
    <mxGraphModel dx="489" dy="305" grid="1" gridSize="10" guides="1" tooltips="1" connect="1" arrows="1" fold="1" page="1" pageScale="1" pageWidth="827" pageHeight="1169" math="0" shadow="0">
      <root>
        <mxCell id="Al25xNTdSf--aAforr7x-0"/>
        <mxCell id="Al25xNTdSf--aAforr7x-1" parent="Al25xNTdSf--aAforr7x-0"/>
        <mxCell id="KzgYfRfU23lKcQu_HlQq-0" value="{*}" style="text;html=1;strokeColor=none;fillColor=none;align=center;verticalAlign=middle;whiteSpace=wrap;rounded=0;fontSize=34;fontColor=#000000;" vertex="1" parent="Al25xNTdSf--aAforr7x-1">
          <mxGeometry x="360" y="201" width="40" height="40" as="geometry"/>
        </mxCell>
        <mxCell id="KzgYfRfU23lKcQu_HlQq-1" value="X" style="text;html=1;strokeColor=none;fillColor=none;align=center;verticalAlign=middle;whiteSpace=wrap;rounded=0;fontSize=34;" vertex="1" parent="Al25xNTdSf--aAforr7x-1">
          <mxGeometry x="240" y="201" width="40" height="40" as="geometry"/>
        </mxCell>
        <mxCell id="KzgYfRfU23lKcQu_HlQq-2" style="edgeStyle=orthogonalEdgeStyle;rounded=0;orthogonalLoop=1;jettySize=auto;html=1;exitX=0;exitY=0.5;exitDx=0;exitDy=0;entryX=1;entryY=0.5;entryDx=0;entryDy=0;fontSize=34;endArrow=none;endFill=0;startArrow=classic;startFill=1;dashed=1;" edge="1" parent="Al25xNTdSf--aAforr7x-1" source="KzgYfRfU23lKcQu_HlQq-0" target="KzgYfRfU23lKcQu_HlQq-1">
          <mxGeometry relative="1" as="geometry">
            <mxPoint x="324.997619047619" y="140.99809523809517" as="sourcePoint"/>
            <mxPoint x="324.997619047619" y="220.99809523809517" as="targetPoint"/>
          </mxGeometry>
        </mxCell>
        <mxCell id="KzgYfRfU23lKcQu_HlQq-3" value="&lt;span style=&quot;font-size: 24px&quot;&gt;f(x) = *&lt;/span&gt;" style="text;html=1;strokeColor=none;fillColor=none;align=center;verticalAlign=middle;whiteSpace=wrap;rounded=0;fontSize=34;" vertex="1" parent="Al25xNTdSf--aAforr7x-1">
          <mxGeometry x="280" y="190" width="80" height="20" as="geometry"/>
        </mxCell>
        <mxCell id="KzgYfRfU23lKcQu_HlQq-4" value="{*}" style="text;html=1;strokeColor=none;fillColor=none;align=center;verticalAlign=middle;whiteSpace=wrap;rounded=0;fontSize=34;fontColor=#000000;" vertex="1" parent="Al25xNTdSf--aAforr7x-1">
          <mxGeometry x="360" y="281" width="40" height="40" as="geometry"/>
        </mxCell>
        <mxCell id="KzgYfRfU23lKcQu_HlQq-5" value="∅" style="text;html=1;strokeColor=none;fillColor=none;align=center;verticalAlign=middle;whiteSpace=wrap;rounded=0;fontSize=34;" vertex="1" parent="Al25xNTdSf--aAforr7x-1">
          <mxGeometry x="240" y="281" width="40" height="40" as="geometry"/>
        </mxCell>
        <mxCell id="KzgYfRfU23lKcQu_HlQq-6" style="edgeStyle=orthogonalEdgeStyle;rounded=0;orthogonalLoop=1;jettySize=auto;html=1;exitX=0;exitY=0.5;exitDx=0;exitDy=0;entryX=1;entryY=0.5;entryDx=0;entryDy=0;fontSize=34;endArrow=none;endFill=0;startArrow=classic;startFill=1;dashed=1;" edge="1" parent="Al25xNTdSf--aAforr7x-1" source="KzgYfRfU23lKcQu_HlQq-4" target="KzgYfRfU23lKcQu_HlQq-5">
          <mxGeometry relative="1" as="geometry">
            <mxPoint x="324.997619047619" y="220.99809523809517" as="sourcePoint"/>
            <mxPoint x="324.997619047619" y="300.9980952380952" as="targetPoint"/>
          </mxGeometry>
        </mxCell>
        <mxCell id="KzgYfRfU23lKcQu_HlQq-7" value="&lt;span style=&quot;font-size: 24px&quot;&gt;∅&lt;/span&gt;" style="text;html=1;strokeColor=none;fillColor=none;align=center;verticalAlign=middle;whiteSpace=wrap;rounded=0;fontSize=34;" vertex="1" parent="Al25xNTdSf--aAforr7x-1">
          <mxGeometry x="280" y="270" width="80" height="20" as="geometry"/>
        </mxCell>
        <mxCell id="KzgYfRfU23lKcQu_HlQq-9" value="X" style="text;html=1;strokeColor=none;fillColor=none;align=center;verticalAlign=middle;whiteSpace=wrap;rounded=0;fontSize=34;fontColor=#000000;" vertex="1" parent="Al25xNTdSf--aAforr7x-1">
          <mxGeometry x="360" y="361" width="40" height="40" as="geometry"/>
        </mxCell>
        <mxCell id="KzgYfRfU23lKcQu_HlQq-10" value="∅" style="text;html=1;strokeColor=none;fillColor=none;align=center;verticalAlign=middle;whiteSpace=wrap;rounded=0;fontSize=34;" vertex="1" parent="Al25xNTdSf--aAforr7x-1">
          <mxGeometry x="240" y="361" width="40" height="40" as="geometry"/>
        </mxCell>
        <mxCell id="KzgYfRfU23lKcQu_HlQq-11" style="edgeStyle=orthogonalEdgeStyle;rounded=0;orthogonalLoop=1;jettySize=auto;html=1;exitX=0;exitY=0.5;exitDx=0;exitDy=0;entryX=1;entryY=0.5;entryDx=0;entryDy=0;fontSize=34;endArrow=none;endFill=0;startArrow=classic;startFill=1;dashed=1;" edge="1" parent="Al25xNTdSf--aAforr7x-1" source="KzgYfRfU23lKcQu_HlQq-9" target="KzgYfRfU23lKcQu_HlQq-10">
          <mxGeometry relative="1" as="geometry">
            <mxPoint x="324.997619047619" y="300.9980952380952" as="sourcePoint"/>
            <mxPoint x="324.997619047619" y="380.9980952380952" as="targetPoint"/>
          </mxGeometry>
        </mxCell>
        <mxCell id="KzgYfRfU23lKcQu_HlQq-12" value="&lt;span style=&quot;font-size: 24px&quot;&gt;∅&lt;/span&gt;" style="text;html=1;strokeColor=none;fillColor=none;align=center;verticalAlign=middle;whiteSpace=wrap;rounded=0;fontSize=34;" vertex="1" parent="Al25xNTdSf--aAforr7x-1">
          <mxGeometry x="280" y="350" width="80" height="20" as="geometry"/>
        </mxCell>
      </root>
    </mxGraphModel>
  </diagram>
  <diagram id="44kMr439bGmA1bVX-8gu" name="init&amp;term other">
    <mxGraphModel dx="704" dy="305" grid="1" gridSize="10" guides="1" tooltips="1" connect="1" arrows="1" fold="1" page="1" pageScale="1" pageWidth="827" pageHeight="1169" math="0" shadow="0">
      <root>
        <mxCell id="M2crva58OYQnND-HxQCl-0"/>
        <mxCell id="M2crva58OYQnND-HxQCl-1" parent="M2crva58OYQnND-HxQCl-0"/>
        <mxCell id="M2crva58OYQnND-HxQCl-2" value="X" style="text;html=1;strokeColor=none;fillColor=none;align=center;verticalAlign=middle;whiteSpace=wrap;rounded=0;fontSize=34;fontColor=#000000;" vertex="1" parent="M2crva58OYQnND-HxQCl-1">
          <mxGeometry x="360" y="201" width="40" height="40" as="geometry"/>
        </mxCell>
        <mxCell id="M2crva58OYQnND-HxQCl-3" value="A" style="text;html=1;strokeColor=none;fillColor=none;align=center;verticalAlign=middle;whiteSpace=wrap;rounded=0;fontSize=34;" vertex="1" parent="M2crva58OYQnND-HxQCl-1">
          <mxGeometry x="240" y="201" width="40" height="40" as="geometry"/>
        </mxCell>
        <mxCell id="M2crva58OYQnND-HxQCl-4" style="edgeStyle=orthogonalEdgeStyle;rounded=0;orthogonalLoop=1;jettySize=auto;html=1;exitX=0;exitY=0.5;exitDx=0;exitDy=0;entryX=1;entryY=0.5;entryDx=0;entryDy=0;fontSize=34;endArrow=none;endFill=0;startArrow=classic;startFill=1;dashed=1;" edge="1" parent="M2crva58OYQnND-HxQCl-1" source="M2crva58OYQnND-HxQCl-2" target="M2crva58OYQnND-HxQCl-3">
          <mxGeometry relative="1" as="geometry">
            <mxPoint x="324.997619047619" y="140.99809523809517" as="sourcePoint"/>
            <mxPoint x="324.997619047619" y="220.99809523809517" as="targetPoint"/>
          </mxGeometry>
        </mxCell>
        <mxCell id="M2crva58OYQnND-HxQCl-5" value="&lt;span style=&quot;font-size: 24px&quot;&gt;A&lt;/span&gt;&lt;span style=&quot;font-size: 24px&quot;&gt;⊂X&lt;/span&gt;" style="text;html=1;strokeColor=none;fillColor=none;align=center;verticalAlign=middle;whiteSpace=wrap;rounded=0;fontSize=34;" vertex="1" parent="M2crva58OYQnND-HxQCl-1">
          <mxGeometry x="280" y="190" width="80" height="20" as="geometry"/>
        </mxCell>
        <mxCell id="M2crva58OYQnND-HxQCl-6" value="A" style="text;html=1;strokeColor=none;fillColor=none;align=center;verticalAlign=middle;whiteSpace=wrap;rounded=0;fontSize=34;fontColor=#000000;" vertex="1" parent="M2crva58OYQnND-HxQCl-1">
          <mxGeometry x="360" y="281" width="40" height="40" as="geometry"/>
        </mxCell>
        <mxCell id="M2crva58OYQnND-HxQCl-7" value="∅" style="text;html=1;strokeColor=none;fillColor=none;align=center;verticalAlign=middle;whiteSpace=wrap;rounded=0;fontSize=34;" vertex="1" parent="M2crva58OYQnND-HxQCl-1">
          <mxGeometry x="240" y="281" width="40" height="40" as="geometry"/>
        </mxCell>
        <mxCell id="M2crva58OYQnND-HxQCl-8" style="edgeStyle=orthogonalEdgeStyle;rounded=0;orthogonalLoop=1;jettySize=auto;html=1;exitX=0;exitY=0.5;exitDx=0;exitDy=0;entryX=1;entryY=0.5;entryDx=0;entryDy=0;fontSize=34;endArrow=none;endFill=0;startArrow=classic;startFill=1;dashed=1;" edge="1" parent="M2crva58OYQnND-HxQCl-1" source="M2crva58OYQnND-HxQCl-6" target="M2crva58OYQnND-HxQCl-7">
          <mxGeometry relative="1" as="geometry">
            <mxPoint x="324.997619047619" y="220.99809523809517" as="sourcePoint"/>
            <mxPoint x="324.997619047619" y="300.9980952380952" as="targetPoint"/>
          </mxGeometry>
        </mxCell>
        <mxCell id="M2crva58OYQnND-HxQCl-9" value="&lt;span style=&quot;font-size: 24px&quot;&gt;∅&lt;/span&gt;&lt;span style=&quot;font-size: 24px&quot;&gt;⊂A&lt;/span&gt;" style="text;html=1;strokeColor=none;fillColor=none;align=center;verticalAlign=middle;whiteSpace=wrap;rounded=0;fontSize=34;" vertex="1" parent="M2crva58OYQnND-HxQCl-1">
          <mxGeometry x="280" y="270" width="80" height="20" as="geometry"/>
        </mxCell>
        <mxCell id="M2crva58OYQnND-HxQCl-14" value="n" style="text;html=1;strokeColor=none;fillColor=none;align=center;verticalAlign=middle;whiteSpace=wrap;rounded=0;fontSize=34;fontColor=#000000;" vertex="1" parent="M2crva58OYQnND-HxQCl-1">
          <mxGeometry x="160" y="201" width="40" height="40" as="geometry"/>
        </mxCell>
        <mxCell id="M2crva58OYQnND-HxQCl-15" value="0" style="text;html=1;strokeColor=none;fillColor=none;align=center;verticalAlign=middle;whiteSpace=wrap;rounded=0;fontSize=34;" vertex="1" parent="M2crva58OYQnND-HxQCl-1">
          <mxGeometry x="40" y="201" width="40" height="40" as="geometry"/>
        </mxCell>
        <mxCell id="M2crva58OYQnND-HxQCl-16" style="edgeStyle=orthogonalEdgeStyle;rounded=0;orthogonalLoop=1;jettySize=auto;html=1;exitX=0;exitY=0.5;exitDx=0;exitDy=0;entryX=1;entryY=0.5;entryDx=0;entryDy=0;fontSize=34;endArrow=none;endFill=0;startArrow=classic;startFill=1;dashed=1;" edge="1" parent="M2crva58OYQnND-HxQCl-1" source="M2crva58OYQnND-HxQCl-14" target="M2crva58OYQnND-HxQCl-15">
          <mxGeometry relative="1" as="geometry">
            <mxPoint x="124.99761904761903" y="140.99809523809517" as="sourcePoint"/>
            <mxPoint x="124.99761904761903" y="220.99809523809517" as="targetPoint"/>
          </mxGeometry>
        </mxCell>
        <mxCell id="M2crva58OYQnND-HxQCl-17" value="&lt;span style=&quot;font-size: 24px&quot;&gt;0 ≤ n&lt;/span&gt;" style="text;html=1;strokeColor=none;fillColor=none;align=center;verticalAlign=middle;whiteSpace=wrap;rounded=0;fontSize=34;" vertex="1" parent="M2crva58OYQnND-HxQCl-1">
          <mxGeometry x="80" y="190" width="80" height="20" as="geometry"/>
        </mxCell>
      </root>
    </mxGraphModel>
  </diagram>
  <diagram id="WvaLoJjMMiPCm59jjj9S" name="mono">
    <mxGraphModel dx="578" dy="366" grid="1" gridSize="10" guides="1" tooltips="1" connect="1" arrows="1" fold="1" page="1" pageScale="1" pageWidth="827" pageHeight="1169" math="0" shadow="0">
      <root>
        <mxCell id="SX-jssz4Q-uCHasnE2Ui-0"/>
        <mxCell id="SX-jssz4Q-uCHasnE2Ui-1" parent="SX-jssz4Q-uCHasnE2Ui-0"/>
        <mxCell id="eN_bQ8vJATEyJ98OUimJ-0" style="edgeStyle=orthogonalEdgeStyle;rounded=0;orthogonalLoop=1;jettySize=auto;html=1;exitX=1;exitY=0.5;exitDx=0;exitDy=0;entryX=0;entryY=0.5;entryDx=0;entryDy=0;fontSize=34;strokeColor=#EA6B66;fontColor=#EA6B66;" edge="1" parent="SX-jssz4Q-uCHasnE2Ui-1">
          <mxGeometry relative="1" as="geometry">
            <mxPoint x="319.8571428571429" y="340.28571428571433" as="sourcePoint"/>
            <mxPoint x="399.8571428571429" y="340.28571428571433" as="targetPoint"/>
          </mxGeometry>
        </mxCell>
        <mxCell id="eN_bQ8vJATEyJ98OUimJ-6" value="&lt;span style=&quot;font-size: 24px&quot;&gt;m&lt;/span&gt;" style="text;html=1;strokeColor=none;fillColor=none;align=center;verticalAlign=middle;whiteSpace=wrap;rounded=0;fontSize=34;fontColor=#EA6B66;" vertex="1" parent="SX-jssz4Q-uCHasnE2Ui-1">
          <mxGeometry x="340" y="310" width="40" height="20" as="geometry"/>
        </mxCell>
        <mxCell id="eN_bQ8vJATEyJ98OUimJ-14" value="A" style="text;html=1;strokeColor=none;fillColor=none;align=center;verticalAlign=middle;whiteSpace=wrap;rounded=0;fontSize=34;" vertex="1" parent="SX-jssz4Q-uCHasnE2Ui-1">
          <mxGeometry x="160" y="320" width="40" height="40" as="geometry"/>
        </mxCell>
        <mxCell id="eN_bQ8vJATEyJ98OUimJ-17" style="edgeStyle=none;rounded=0;orthogonalLoop=1;jettySize=auto;html=1;exitX=0;exitY=0.25;exitDx=0;exitDy=0;entryX=1;entryY=0.25;entryDx=0;entryDy=0;fontSize=34;endArrow=none;endFill=0;startArrow=classic;startFill=1;" edge="1" parent="SX-jssz4Q-uCHasnE2Ui-1" target="eN_bQ8vJATEyJ98OUimJ-14">
          <mxGeometry relative="1" as="geometry">
            <mxPoint x="280" y="330" as="sourcePoint"/>
            <mxPoint x="330" y="260" as="targetPoint"/>
          </mxGeometry>
        </mxCell>
        <mxCell id="eN_bQ8vJATEyJ98OUimJ-18" style="edgeStyle=none;rounded=0;orthogonalLoop=1;jettySize=auto;html=1;exitX=0;exitY=0.75;exitDx=0;exitDy=0;entryX=1;entryY=0.75;entryDx=0;entryDy=0;fontSize=34;endArrow=none;endFill=0;startArrow=classic;startFill=1;" edge="1" parent="SX-jssz4Q-uCHasnE2Ui-1" target="eN_bQ8vJATEyJ98OUimJ-14">
          <mxGeometry relative="1" as="geometry">
            <mxPoint x="280" y="350" as="sourcePoint"/>
            <mxPoint x="210" y="340" as="targetPoint"/>
          </mxGeometry>
        </mxCell>
        <mxCell id="eN_bQ8vJATEyJ98OUimJ-19" value="&lt;span style=&quot;font-size: 24px&quot;&gt;f&lt;/span&gt;" style="text;html=1;strokeColor=none;fillColor=none;align=center;verticalAlign=middle;whiteSpace=wrap;rounded=0;fontSize=34;" vertex="1" parent="SX-jssz4Q-uCHasnE2Ui-1">
          <mxGeometry x="230" y="300" width="20" height="20" as="geometry"/>
        </mxCell>
        <mxCell id="eN_bQ8vJATEyJ98OUimJ-21" value="&lt;span style=&quot;font-size: 24px&quot;&gt;g&lt;/span&gt;" style="text;html=1;strokeColor=none;fillColor=none;align=center;verticalAlign=middle;whiteSpace=wrap;rounded=0;fontSize=34;" vertex="1" parent="SX-jssz4Q-uCHasnE2Ui-1">
          <mxGeometry x="230" y="350" width="20" height="20" as="geometry"/>
        </mxCell>
        <mxCell id="eN_bQ8vJATEyJ98OUimJ-22" value="B" style="text;html=1;strokeColor=none;fillColor=none;align=center;verticalAlign=middle;whiteSpace=wrap;rounded=0;fontSize=34;direction=south;fontColor=#7EA6E0;" vertex="1" parent="SX-jssz4Q-uCHasnE2Ui-1">
          <mxGeometry x="280" y="320" width="40" height="40" as="geometry"/>
        </mxCell>
        <mxCell id="eN_bQ8vJATEyJ98OUimJ-23" value="C" style="text;html=1;strokeColor=none;fillColor=none;align=center;verticalAlign=middle;whiteSpace=wrap;rounded=0;fontSize=34;fontColor=#7EA6E0;" vertex="1" parent="SX-jssz4Q-uCHasnE2Ui-1">
          <mxGeometry x="400" y="320" width="40" height="40" as="geometry"/>
        </mxCell>
        <mxCell id="eN_bQ8vJATEyJ98OUimJ-24" value="mf = mg&amp;nbsp;⇒ f=g" style="text;html=1;strokeColor=none;fillColor=none;align=center;verticalAlign=bottom;whiteSpace=wrap;rounded=0;fontSize=28;fontColor=#000000;" vertex="1" parent="SX-jssz4Q-uCHasnE2Ui-1">
          <mxGeometry x="155" y="410" width="290" height="20" as="geometry"/>
        </mxCell>
      </root>
    </mxGraphModel>
  </diagram>
  <diagram id="7UAHo87TJLQBoJqPb29-" name="epi">
    <mxGraphModel dx="704" dy="305" grid="1" gridSize="10" guides="1" tooltips="1" connect="1" arrows="1" fold="1" page="1" pageScale="1" pageWidth="827" pageHeight="1169" math="0" shadow="0">
      <root>
        <mxCell id="-dLdi_tctcyaMijYRl2z-0"/>
        <mxCell id="-dLdi_tctcyaMijYRl2z-1" parent="-dLdi_tctcyaMijYRl2z-0"/>
        <mxCell id="-dLdi_tctcyaMijYRl2z-2" style="edgeStyle=orthogonalEdgeStyle;rounded=0;orthogonalLoop=1;jettySize=auto;html=1;exitX=1;exitY=0.5;exitDx=0;exitDy=0;entryX=0;entryY=0.5;entryDx=0;entryDy=0;fontSize=34;strokeColor=#EA6B66;fontColor=#EA6B66;" edge="1" parent="-dLdi_tctcyaMijYRl2z-1">
          <mxGeometry relative="1" as="geometry">
            <mxPoint x="319.8571428571429" y="340.28571428571433" as="sourcePoint"/>
            <mxPoint x="399.8571428571429" y="340.28571428571433" as="targetPoint"/>
          </mxGeometry>
        </mxCell>
        <mxCell id="-dLdi_tctcyaMijYRl2z-3" value="&lt;span style=&quot;font-size: 24px&quot;&gt;e&lt;/span&gt;" style="text;html=1;strokeColor=none;fillColor=none;align=center;verticalAlign=middle;whiteSpace=wrap;rounded=0;fontSize=34;fontColor=#EA6B66;" vertex="1" parent="-dLdi_tctcyaMijYRl2z-1">
          <mxGeometry x="340" y="310" width="40" height="20" as="geometry"/>
        </mxCell>
        <mxCell id="-dLdi_tctcyaMijYRl2z-4" value="C" style="text;html=1;strokeColor=none;fillColor=none;align=center;verticalAlign=middle;whiteSpace=wrap;rounded=0;fontSize=34;" vertex="1" parent="-dLdi_tctcyaMijYRl2z-1">
          <mxGeometry x="520" y="320" width="40" height="40" as="geometry"/>
        </mxCell>
        <mxCell id="-dLdi_tctcyaMijYRl2z-5" style="edgeStyle=none;rounded=0;orthogonalLoop=1;jettySize=auto;html=1;exitX=0;exitY=0.25;exitDx=0;exitDy=0;entryX=1;entryY=0.25;entryDx=0;entryDy=0;fontSize=34;endArrow=none;endFill=0;startArrow=classic;startFill=1;" edge="1" parent="-dLdi_tctcyaMijYRl2z-1">
          <mxGeometry relative="1" as="geometry">
            <mxPoint x="520" y="330" as="sourcePoint"/>
            <mxPoint x="440" y="330" as="targetPoint"/>
          </mxGeometry>
        </mxCell>
        <mxCell id="-dLdi_tctcyaMijYRl2z-6" style="edgeStyle=none;rounded=0;orthogonalLoop=1;jettySize=auto;html=1;exitX=0;exitY=0.75;exitDx=0;exitDy=0;entryX=1;entryY=0.75;entryDx=0;entryDy=0;fontSize=34;endArrow=none;endFill=0;startArrow=classic;startFill=1;" edge="1" parent="-dLdi_tctcyaMijYRl2z-1">
          <mxGeometry relative="1" as="geometry">
            <mxPoint x="520" y="350" as="sourcePoint"/>
            <mxPoint x="440" y="350" as="targetPoint"/>
          </mxGeometry>
        </mxCell>
        <mxCell id="-dLdi_tctcyaMijYRl2z-7" value="&lt;span style=&quot;font-size: 24px&quot;&gt;f&lt;/span&gt;" style="text;html=1;strokeColor=none;fillColor=none;align=center;verticalAlign=middle;whiteSpace=wrap;rounded=0;fontSize=34;" vertex="1" parent="-dLdi_tctcyaMijYRl2z-1">
          <mxGeometry x="470" y="300" width="20" height="20" as="geometry"/>
        </mxCell>
        <mxCell id="-dLdi_tctcyaMijYRl2z-8" value="&lt;span style=&quot;font-size: 24px&quot;&gt;g&lt;/span&gt;" style="text;html=1;strokeColor=none;fillColor=none;align=center;verticalAlign=middle;whiteSpace=wrap;rounded=0;fontSize=34;" vertex="1" parent="-dLdi_tctcyaMijYRl2z-1">
          <mxGeometry x="470" y="350" width="20" height="20" as="geometry"/>
        </mxCell>
        <mxCell id="-dLdi_tctcyaMijYRl2z-9" value="A" style="text;html=1;strokeColor=none;fillColor=none;align=center;verticalAlign=middle;whiteSpace=wrap;rounded=0;fontSize=34;direction=south;fontColor=#7EA6E0;" vertex="1" parent="-dLdi_tctcyaMijYRl2z-1">
          <mxGeometry x="280" y="320" width="40" height="40" as="geometry"/>
        </mxCell>
        <mxCell id="-dLdi_tctcyaMijYRl2z-10" value="B" style="text;html=1;strokeColor=none;fillColor=none;align=center;verticalAlign=middle;whiteSpace=wrap;rounded=0;fontSize=34;fontColor=#7EA6E0;" vertex="1" parent="-dLdi_tctcyaMijYRl2z-1">
          <mxGeometry x="400" y="320" width="40" height="40" as="geometry"/>
        </mxCell>
        <mxCell id="-dLdi_tctcyaMijYRl2z-11" value="fe = ge ⇒ f=g" style="text;html=1;strokeColor=none;fillColor=none;align=center;verticalAlign=bottom;whiteSpace=wrap;rounded=0;fontSize=28;fontColor=#000000;" vertex="1" parent="-dLdi_tctcyaMijYRl2z-1">
          <mxGeometry x="280" y="400" width="290" height="20" as="geometry"/>
        </mxCell>
      </root>
    </mxGraphModel>
  </diagram>
  <diagram id="LM4BL2Z7F4Fl0d6eih0A" name="product">
    <mxGraphModel dx="488" dy="305" grid="1" gridSize="10" guides="1" tooltips="1" connect="1" arrows="1" fold="1" page="1" pageScale="1" pageWidth="827" pageHeight="1169" math="0" shadow="0">
      <root>
        <mxCell id="XPT1YuajJSw2wP_Pz-ao-0"/>
        <mxCell id="XPT1YuajJSw2wP_Pz-ao-1" parent="XPT1YuajJSw2wP_Pz-ao-0"/>
        <mxCell id="XPT1YuajJSw2wP_Pz-ao-2" style="edgeStyle=orthogonalEdgeStyle;rounded=0;orthogonalLoop=1;jettySize=auto;html=1;exitX=0;exitY=0.5;exitDx=0;exitDy=0;fontSize=34;strokeColor=#EA6B66;fontColor=#EA6B66;entryX=1;entryY=0.5;entryDx=0;entryDy=0;" edge="1" parent="XPT1YuajJSw2wP_Pz-ao-1" source="XPT1YuajJSw2wP_Pz-ao-6" target="XPT1YuajJSw2wP_Pz-ao-4">
          <mxGeometry relative="1" as="geometry">
            <mxPoint x="230" y="170" as="targetPoint"/>
          </mxGeometry>
        </mxCell>
        <mxCell id="XPT1YuajJSw2wP_Pz-ao-3" style="rounded=0;orthogonalLoop=1;jettySize=auto;html=1;fontSize=34;endArrow=none;endFill=0;startArrow=classic;startFill=1;exitX=0.75;exitY=1;exitDx=0;exitDy=0;entryX=0;entryY=0.25;entryDx=0;entryDy=0;" edge="1" parent="XPT1YuajJSw2wP_Pz-ao-1" source="XPT1YuajJSw2wP_Pz-ao-4" target="XPT1YuajJSw2wP_Pz-ao-7">
          <mxGeometry relative="1" as="geometry">
            <mxPoint x="190" y="210" as="sourcePoint"/>
            <mxPoint x="240" y="250" as="targetPoint"/>
          </mxGeometry>
        </mxCell>
        <mxCell id="XPT1YuajJSw2wP_Pz-ao-4" value="A" style="text;html=1;strokeColor=none;fillColor=none;align=center;verticalAlign=middle;whiteSpace=wrap;rounded=0;fontSize=34;fontColor=#7EA6E0;" vertex="1" parent="XPT1YuajJSw2wP_Pz-ao-1">
          <mxGeometry x="160" y="120" width="40" height="40" as="geometry"/>
        </mxCell>
        <mxCell id="XPT1YuajJSw2wP_Pz-ao-5" style="edgeStyle=orthogonalEdgeStyle;rounded=0;orthogonalLoop=1;jettySize=auto;html=1;exitX=0.5;exitY=1;exitDx=0;exitDy=0;fontSize=34;endArrow=none;endFill=0;startArrow=classic;startFill=1;dashed=1;entryX=0.5;entryY=0;entryDx=0;entryDy=0;" edge="1" parent="XPT1YuajJSw2wP_Pz-ao-1" source="XPT1YuajJSw2wP_Pz-ao-6" target="XPT1YuajJSw2wP_Pz-ao-7">
          <mxGeometry relative="1" as="geometry">
            <mxPoint x="330" y="190" as="targetPoint"/>
          </mxGeometry>
        </mxCell>
        <mxCell id="XPT1YuajJSw2wP_Pz-ao-6" value="A&lt;span style=&quot;font-family: &amp;#34;pt serif&amp;#34; , &amp;#34;noto sans armenian&amp;#34; , &amp;#34;noto sans bengali&amp;#34; , &amp;#34;noto sans cherokee&amp;#34; , &amp;#34;noto sans devanagari&amp;#34; , &amp;#34;noto sans ethiopic&amp;#34; , &amp;#34;noto sans georgian&amp;#34; , &amp;#34;noto sans hebrew&amp;#34; , &amp;#34;noto sans kannada&amp;#34; , &amp;#34;noto sans khmer&amp;#34; , &amp;#34;noto sans lao&amp;#34; , &amp;#34;noto sans osmanya&amp;#34; , &amp;#34;noto sans tamil&amp;#34; , &amp;#34;noto sans telugu&amp;#34; , &amp;#34;noto sans thai&amp;#34; , serif ; font-size: 19px ; background-color: rgb(255 , 255 , 255)&quot;&gt;×&lt;/span&gt;B" style="text;html=1;strokeColor=none;fillColor=none;align=center;verticalAlign=middle;whiteSpace=wrap;rounded=0;fontSize=34;fontColor=#EA6B66;" vertex="1" parent="XPT1YuajJSw2wP_Pz-ao-1">
          <mxGeometry x="260" y="120" width="80" height="40" as="geometry"/>
        </mxCell>
        <mxCell id="XPT1YuajJSw2wP_Pz-ao-7" value="X" style="text;html=1;strokeColor=none;fillColor=none;align=center;verticalAlign=middle;whiteSpace=wrap;rounded=0;fontSize=34;" vertex="1" parent="XPT1YuajJSw2wP_Pz-ao-1">
          <mxGeometry x="280" y="240" width="40" height="40" as="geometry"/>
        </mxCell>
        <mxCell id="XPT1YuajJSw2wP_Pz-ao-8" value="&lt;font style=&quot;font-size: 24px&quot;&gt;π&lt;sub&gt;1&lt;/sub&gt;&lt;/font&gt;" style="text;html=1;strokeColor=none;fillColor=none;align=center;verticalAlign=middle;whiteSpace=wrap;rounded=0;fontSize=34;fontColor=#EA6B66;" vertex="1" parent="XPT1YuajJSw2wP_Pz-ao-1">
          <mxGeometry x="215" y="110" width="40" height="20" as="geometry"/>
        </mxCell>
        <mxCell id="XPT1YuajJSw2wP_Pz-ao-9" value="&lt;font style=&quot;font-size: 24px&quot;&gt;g&lt;/font&gt;" style="text;html=1;strokeColor=none;fillColor=none;align=center;verticalAlign=middle;whiteSpace=wrap;rounded=0;fontSize=34;" vertex="1" parent="XPT1YuajJSw2wP_Pz-ao-1">
          <mxGeometry x="360" y="190" width="40" height="20" as="geometry"/>
        </mxCell>
        <mxCell id="XPT1YuajJSw2wP_Pz-ao-10" value="&lt;span style=&quot;font-size: 24px&quot;&gt;f&lt;/span&gt;" style="text;html=1;strokeColor=none;fillColor=none;align=center;verticalAlign=middle;whiteSpace=wrap;rounded=0;fontSize=34;" vertex="1" parent="XPT1YuajJSw2wP_Pz-ao-1">
          <mxGeometry x="195" y="190" width="50" height="20" as="geometry"/>
        </mxCell>
        <mxCell id="XPT1YuajJSw2wP_Pz-ao-11" style="edgeStyle=none;rounded=0;orthogonalLoop=1;jettySize=auto;html=1;entryX=1;entryY=0.25;entryDx=0;entryDy=0;fontSize=34;endArrow=none;endFill=0;startArrow=classic;startFill=1;exitX=1;exitY=0.75;exitDx=0;exitDy=0;" edge="1" parent="XPT1YuajJSw2wP_Pz-ao-1" source="XPT1YuajJSw2wP_Pz-ao-12" target="XPT1YuajJSw2wP_Pz-ao-7">
          <mxGeometry relative="1" as="geometry">
            <mxPoint x="410" y="200" as="sourcePoint"/>
          </mxGeometry>
        </mxCell>
        <mxCell id="XPT1YuajJSw2wP_Pz-ao-12" value="B" style="text;html=1;strokeColor=none;fillColor=none;align=center;verticalAlign=middle;whiteSpace=wrap;rounded=0;fontSize=34;direction=south;fontColor=#7EA6E0;" vertex="1" parent="XPT1YuajJSw2wP_Pz-ao-1">
          <mxGeometry x="400" y="120" width="40" height="40" as="geometry"/>
        </mxCell>
        <mxCell id="XPT1YuajJSw2wP_Pz-ao-13" style="edgeStyle=orthogonalEdgeStyle;rounded=0;orthogonalLoop=1;jettySize=auto;html=1;exitX=1;exitY=0.5;exitDx=0;exitDy=0;fontSize=34;strokeColor=#EA6B66;fontColor=#EA6B66;entryX=0.5;entryY=1;entryDx=0;entryDy=0;" edge="1" parent="XPT1YuajJSw2wP_Pz-ao-1" source="XPT1YuajJSw2wP_Pz-ao-6" target="XPT1YuajJSw2wP_Pz-ao-12">
          <mxGeometry relative="1" as="geometry">
            <mxPoint x="210.28571428571433" y="150.28571428571428" as="sourcePoint"/>
            <mxPoint x="370" y="160" as="targetPoint"/>
          </mxGeometry>
        </mxCell>
        <mxCell id="XPT1YuajJSw2wP_Pz-ao-14" value="&lt;font style=&quot;font-size: 24px&quot;&gt;π&lt;/font&gt;&lt;font style=&quot;font-size: 20px&quot;&gt;&lt;sub&gt;2&lt;/sub&gt;&lt;/font&gt;" style="text;html=1;strokeColor=none;fillColor=none;align=center;verticalAlign=middle;whiteSpace=wrap;rounded=0;fontSize=34;fontColor=#EA6B66;" vertex="1" parent="XPT1YuajJSw2wP_Pz-ao-1">
          <mxGeometry x="350" y="110" width="40" height="20" as="geometry"/>
        </mxCell>
        <mxCell id="XPT1YuajJSw2wP_Pz-ao-15" value="&lt;span style=&quot;font-size: 24px&quot;&gt;f&lt;/span&gt;&lt;span style=&quot;color: rgba(0 , 0 , 0 , 0.86) ; font-family: &amp;#34;pt serif&amp;#34; , &amp;#34;noto sans armenian&amp;#34; , &amp;#34;noto sans bengali&amp;#34; , &amp;#34;noto sans cherokee&amp;#34; , &amp;#34;noto sans devanagari&amp;#34; , &amp;#34;noto sans ethiopic&amp;#34; , &amp;#34;noto sans georgian&amp;#34; , &amp;#34;noto sans hebrew&amp;#34; , &amp;#34;noto sans kannada&amp;#34; , &amp;#34;noto sans khmer&amp;#34; , &amp;#34;noto sans lao&amp;#34; , &amp;#34;noto sans osmanya&amp;#34; , &amp;#34;noto sans tamil&amp;#34; , &amp;#34;noto sans telugu&amp;#34; , &amp;#34;noto sans thai&amp;#34; , serif ; font-size: 19px ; background-color: rgb(255 , 255 , 255)&quot;&gt;×&lt;/span&gt;&lt;span style=&quot;font-size: 24px&quot;&gt;g&lt;/span&gt;" style="text;html=1;strokeColor=none;fillColor=none;align=center;verticalAlign=middle;whiteSpace=wrap;rounded=0;fontSize=34;" vertex="1" parent="XPT1YuajJSw2wP_Pz-ao-1">
          <mxGeometry x="255" y="172" width="50" height="20" as="geometry"/>
        </mxCell>
      </root>
    </mxGraphModel>
  </diagram>
  <diagram id="PgpHqYHLQfdTfMlRc4qT" name="coproduct">
    <mxGraphModel dx="704" dy="305" grid="1" gridSize="10" guides="1" tooltips="1" connect="1" arrows="1" fold="1" page="1" pageScale="1" pageWidth="827" pageHeight="1169" math="0" shadow="0">
      <root>
        <mxCell id="0"/>
        <mxCell id="1" parent="0"/>
        <mxCell id="TAu7LOF07qHCaoeB3zgW-5" style="edgeStyle=orthogonalEdgeStyle;rounded=0;orthogonalLoop=1;jettySize=auto;html=1;exitX=1;exitY=0.5;exitDx=0;exitDy=0;entryX=0;entryY=0.5;entryDx=0;entryDy=0;fontSize=34;strokeColor=#EA6B66;fontColor=#EA6B66;" parent="1" source="TAu7LOF07qHCaoeB3zgW-1" target="TAu7LOF07qHCaoeB3zgW-2" edge="1">
          <mxGeometry relative="1" as="geometry"/>
        </mxCell>
        <mxCell id="TAu7LOF07qHCaoeB3zgW-7" style="rounded=0;orthogonalLoop=1;jettySize=auto;html=1;entryX=0.75;entryY=1;entryDx=0;entryDy=0;fontSize=34;endArrow=none;endFill=0;startArrow=classic;startFill=1;exitX=0;exitY=0.25;exitDx=0;exitDy=0;" parent="1" source="TAu7LOF07qHCaoeB3zgW-4" target="TAu7LOF07qHCaoeB3zgW-1" edge="1">
          <mxGeometry relative="1" as="geometry">
            <mxPoint x="200" y="220" as="sourcePoint"/>
          </mxGeometry>
        </mxCell>
        <mxCell id="TAu7LOF07qHCaoeB3zgW-1" value="A" style="text;html=1;strokeColor=none;fillColor=none;align=center;verticalAlign=middle;whiteSpace=wrap;rounded=0;fontSize=34;fontColor=#7EA6E0;" parent="1" vertex="1">
          <mxGeometry x="160" y="120" width="40" height="40" as="geometry"/>
        </mxCell>
        <mxCell id="TAu7LOF07qHCaoeB3zgW-6" style="edgeStyle=orthogonalEdgeStyle;rounded=0;orthogonalLoop=1;jettySize=auto;html=1;entryX=0.5;entryY=1;entryDx=0;entryDy=0;fontSize=34;endArrow=none;endFill=0;startArrow=classic;startFill=1;dashed=1;exitX=0.5;exitY=0;exitDx=0;exitDy=0;" parent="1" source="TAu7LOF07qHCaoeB3zgW-4" target="TAu7LOF07qHCaoeB3zgW-2" edge="1">
          <mxGeometry relative="1" as="geometry">
            <mxPoint x="330" y="190" as="sourcePoint"/>
          </mxGeometry>
        </mxCell>
        <mxCell id="TAu7LOF07qHCaoeB3zgW-2" value="A+B" style="text;html=1;strokeColor=none;fillColor=none;align=center;verticalAlign=middle;whiteSpace=wrap;rounded=0;fontSize=34;fontColor=#EA6B66;" parent="1" vertex="1">
          <mxGeometry x="260" y="120" width="80" height="40" as="geometry"/>
        </mxCell>
        <mxCell id="TAu7LOF07qHCaoeB3zgW-4" value="X" style="text;html=1;strokeColor=none;fillColor=none;align=center;verticalAlign=middle;whiteSpace=wrap;rounded=0;fontSize=34;" parent="1" vertex="1">
          <mxGeometry x="280" y="240" width="40" height="40" as="geometry"/>
        </mxCell>
        <mxCell id="TAu7LOF07qHCaoeB3zgW-9" value="&lt;font style=&quot;font-size: 24px&quot;&gt;i&lt;sub&gt;1&lt;/sub&gt;&lt;/font&gt;" style="text;html=1;strokeColor=none;fillColor=none;align=center;verticalAlign=middle;whiteSpace=wrap;rounded=0;fontSize=34;fontColor=#EA6B66;" parent="1" vertex="1">
          <mxGeometry x="215" y="110" width="40" height="20" as="geometry"/>
        </mxCell>
        <mxCell id="TAu7LOF07qHCaoeB3zgW-12" value="&lt;font style=&quot;font-size: 24px&quot;&gt;g&lt;/font&gt;" style="text;html=1;strokeColor=none;fillColor=none;align=center;verticalAlign=middle;whiteSpace=wrap;rounded=0;fontSize=34;" parent="1" vertex="1">
          <mxGeometry x="360" y="190" width="40" height="20" as="geometry"/>
        </mxCell>
        <mxCell id="TAu7LOF07qHCaoeB3zgW-13" value="&lt;span style=&quot;font-size: 24px&quot;&gt;f&lt;/span&gt;" style="text;html=1;strokeColor=none;fillColor=none;align=center;verticalAlign=middle;whiteSpace=wrap;rounded=0;fontSize=34;" parent="1" vertex="1">
          <mxGeometry x="195" y="190" width="50" height="20" as="geometry"/>
        </mxCell>
        <mxCell id="TAu7LOF07qHCaoeB3zgW-25" style="edgeStyle=none;rounded=0;orthogonalLoop=1;jettySize=auto;html=1;exitX=1;exitY=0.25;exitDx=0;exitDy=0;fontSize=34;endArrow=none;endFill=0;startArrow=classic;startFill=1;entryX=1;entryY=0.75;entryDx=0;entryDy=0;" parent="1" source="TAu7LOF07qHCaoeB3zgW-4" target="TAu7LOF07qHCaoeB3zgW-21" edge="1">
          <mxGeometry relative="1" as="geometry">
            <mxPoint x="370" y="180" as="targetPoint"/>
          </mxGeometry>
        </mxCell>
        <mxCell id="TAu7LOF07qHCaoeB3zgW-21" value="B" style="text;html=1;strokeColor=none;fillColor=none;align=center;verticalAlign=middle;whiteSpace=wrap;rounded=0;fontSize=34;direction=south;fontColor=#7EA6E0;" parent="1" vertex="1">
          <mxGeometry x="400" y="120" width="40" height="40" as="geometry"/>
        </mxCell>
        <mxCell id="TAu7LOF07qHCaoeB3zgW-24" style="edgeStyle=orthogonalEdgeStyle;rounded=0;orthogonalLoop=1;jettySize=auto;html=1;exitX=0.5;exitY=1;exitDx=0;exitDy=0;entryX=1;entryY=0.5;entryDx=0;entryDy=0;fontSize=34;strokeColor=#EA6B66;fontColor=#EA6B66;" parent="1" source="TAu7LOF07qHCaoeB3zgW-21" target="TAu7LOF07qHCaoeB3zgW-2" edge="1">
          <mxGeometry relative="1" as="geometry">
            <mxPoint x="210.28571428571433" y="150.28571428571428" as="sourcePoint"/>
            <mxPoint x="290.28571428571433" y="150.28571428571428" as="targetPoint"/>
          </mxGeometry>
        </mxCell>
        <mxCell id="TAu7LOF07qHCaoeB3zgW-26" value="&lt;font style=&quot;font-size: 24px&quot;&gt;i&lt;/font&gt;&lt;font style=&quot;font-size: 20px&quot;&gt;&lt;sub&gt;2&lt;/sub&gt;&lt;/font&gt;" style="text;html=1;strokeColor=none;fillColor=none;align=center;verticalAlign=middle;whiteSpace=wrap;rounded=0;fontSize=34;fontColor=#EA6B66;" parent="1" vertex="1">
          <mxGeometry x="350" y="110" width="40" height="20" as="geometry"/>
        </mxCell>
        <mxCell id="TAu7LOF07qHCaoeB3zgW-27" value="&lt;span style=&quot;font-size: 24px&quot;&gt;f+g&lt;/span&gt;" style="text;html=1;strokeColor=none;fillColor=none;align=center;verticalAlign=middle;whiteSpace=wrap;rounded=0;fontSize=34;" parent="1" vertex="1">
          <mxGeometry x="255" y="172" width="50" height="20" as="geometry"/>
        </mxCell>
      </root>
    </mxGraphModel>
  </diagram>
  <diagram id="USgX88zk9hNFzrsp8HhG" name="equaliser">
    <mxGraphModel dx="488" dy="305" grid="1" gridSize="10" guides="1" tooltips="1" connect="1" arrows="1" fold="1" page="1" pageScale="1" pageWidth="827" pageHeight="1169" math="0" shadow="0">
      <root>
        <mxCell id="VCdgVW2mn2W_y9x6BVSf-0"/>
        <mxCell id="VCdgVW2mn2W_y9x6BVSf-1" parent="VCdgVW2mn2W_y9x6BVSf-0"/>
        <mxCell id="xaHaH3wOPv57AYOAN6qh-1" style="rounded=0;orthogonalLoop=1;jettySize=auto;html=1;fontSize=34;endArrow=none;endFill=0;startArrow=classic;startFill=1;exitX=0;exitY=0.25;exitDx=0;exitDy=0;entryX=0.25;entryY=0;entryDx=0;entryDy=0;fontColor=#7EA6E0;strokeColor=#7EA6E0;" edge="1" parent="VCdgVW2mn2W_y9x6BVSf-1" source="xaHaH3wOPv57AYOAN6qh-2" target="xaHaH3wOPv57AYOAN6qh-10">
          <mxGeometry relative="1" as="geometry">
            <mxPoint x="190" y="210" as="sourcePoint"/>
            <mxPoint x="240" y="250" as="targetPoint"/>
          </mxGeometry>
        </mxCell>
        <mxCell id="xaHaH3wOPv57AYOAN6qh-2" value="B" style="text;html=1;strokeColor=none;fillColor=none;align=center;verticalAlign=middle;whiteSpace=wrap;rounded=0;fontSize=34;fontColor=#7EA6E0;" vertex="1" parent="VCdgVW2mn2W_y9x6BVSf-1">
          <mxGeometry x="400" y="40" width="40" height="40" as="geometry"/>
        </mxCell>
        <mxCell id="xaHaH3wOPv57AYOAN6qh-3" style="edgeStyle=orthogonalEdgeStyle;rounded=0;orthogonalLoop=1;jettySize=auto;html=1;exitX=0.5;exitY=1;exitDx=0;exitDy=0;fontSize=34;endArrow=none;endFill=0;startArrow=classic;startFill=1;dashed=1;entryX=0.5;entryY=0;entryDx=0;entryDy=0;" edge="1" parent="VCdgVW2mn2W_y9x6BVSf-1" source="xaHaH3wOPv57AYOAN6qh-4" target="xaHaH3wOPv57AYOAN6qh-5">
          <mxGeometry relative="1" as="geometry">
            <mxPoint x="330" y="190" as="targetPoint"/>
          </mxGeometry>
        </mxCell>
        <mxCell id="xaHaH3wOPv57AYOAN6qh-4" value="E" style="text;html=1;strokeColor=none;fillColor=none;align=center;verticalAlign=middle;whiteSpace=wrap;rounded=0;fontSize=34;fontColor=#EA6B66;" vertex="1" parent="VCdgVW2mn2W_y9x6BVSf-1">
          <mxGeometry x="160" y="40" width="40" height="40" as="geometry"/>
        </mxCell>
        <mxCell id="xaHaH3wOPv57AYOAN6qh-5" value="X" style="text;html=1;strokeColor=none;fillColor=none;align=center;verticalAlign=middle;whiteSpace=wrap;rounded=0;fontSize=34;" vertex="1" parent="VCdgVW2mn2W_y9x6BVSf-1">
          <mxGeometry x="160" y="160" width="40" height="40" as="geometry"/>
        </mxCell>
        <mxCell id="xaHaH3wOPv57AYOAN6qh-6" value="&lt;span style=&quot;font-size: 24px&quot;&gt;m&lt;/span&gt;" style="text;html=1;strokeColor=none;fillColor=none;align=center;verticalAlign=middle;whiteSpace=wrap;rounded=0;fontSize=34;fontColor=#000000;" vertex="1" parent="VCdgVW2mn2W_y9x6BVSf-1">
          <mxGeometry x="240" y="110" width="40" height="20" as="geometry"/>
        </mxCell>
        <mxCell id="xaHaH3wOPv57AYOAN6qh-7" value="&lt;font style=&quot;font-size: 24px&quot;&gt;g&lt;/font&gt;" style="text;html=1;strokeColor=none;fillColor=none;align=center;verticalAlign=middle;whiteSpace=wrap;rounded=0;fontSize=34;fontColor=#7EA6E0;" vertex="1" parent="VCdgVW2mn2W_y9x6BVSf-1">
          <mxGeometry x="338" y="63" width="40" height="20" as="geometry"/>
        </mxCell>
        <mxCell id="xaHaH3wOPv57AYOAN6qh-8" value="&lt;span style=&quot;font-size: 24px&quot;&gt;f&lt;/span&gt;" style="text;html=1;strokeColor=none;fillColor=none;align=center;verticalAlign=middle;whiteSpace=wrap;rounded=0;fontSize=34;fontColor=#7EA6E0;" vertex="1" parent="VCdgVW2mn2W_y9x6BVSf-1">
          <mxGeometry x="333" y="22" width="50" height="20" as="geometry"/>
        </mxCell>
        <mxCell id="xaHaH3wOPv57AYOAN6qh-9" style="edgeStyle=none;rounded=0;orthogonalLoop=1;jettySize=auto;html=1;entryX=1;entryY=0.25;entryDx=0;entryDy=0;fontSize=34;endArrow=none;endFill=0;startArrow=classic;startFill=1;exitX=1;exitY=0.75;exitDx=0;exitDy=0;" edge="1" parent="VCdgVW2mn2W_y9x6BVSf-1" source="xaHaH3wOPv57AYOAN6qh-10" target="xaHaH3wOPv57AYOAN6qh-5">
          <mxGeometry relative="1" as="geometry">
            <mxPoint x="410" y="200" as="sourcePoint"/>
          </mxGeometry>
        </mxCell>
        <mxCell id="xaHaH3wOPv57AYOAN6qh-10" value="A" style="text;html=1;strokeColor=none;fillColor=none;align=center;verticalAlign=middle;whiteSpace=wrap;rounded=0;fontSize=34;direction=south;fontColor=#7EA6E0;" vertex="1" parent="VCdgVW2mn2W_y9x6BVSf-1">
          <mxGeometry x="280" y="40" width="40" height="40" as="geometry"/>
        </mxCell>
        <mxCell id="xaHaH3wOPv57AYOAN6qh-11" style="edgeStyle=orthogonalEdgeStyle;rounded=0;orthogonalLoop=1;jettySize=auto;html=1;exitX=1;exitY=0.5;exitDx=0;exitDy=0;fontSize=34;strokeColor=#EA6B66;fontColor=#EA6B66;entryX=0.5;entryY=1;entryDx=0;entryDy=0;" edge="1" parent="VCdgVW2mn2W_y9x6BVSf-1" source="xaHaH3wOPv57AYOAN6qh-4" target="xaHaH3wOPv57AYOAN6qh-10">
          <mxGeometry relative="1" as="geometry">
            <mxPoint x="210.28571428571433" y="150.28571428571428" as="sourcePoint"/>
            <mxPoint x="370" y="160" as="targetPoint"/>
          </mxGeometry>
        </mxCell>
        <mxCell id="xaHaH3wOPv57AYOAN6qh-12" value="&lt;span style=&quot;font-size: 24px&quot;&gt;e&lt;/span&gt;" style="text;html=1;strokeColor=none;fillColor=none;align=center;verticalAlign=middle;whiteSpace=wrap;rounded=0;fontSize=34;fontColor=#EA6B66;" vertex="1" parent="VCdgVW2mn2W_y9x6BVSf-1">
          <mxGeometry x="215" y="32" width="40" height="20" as="geometry"/>
        </mxCell>
        <mxCell id="xaHaH3wOPv57AYOAN6qh-13" value="&lt;span style=&quot;font-size: 24px&quot;&gt;u&lt;/span&gt;" style="text;html=1;strokeColor=none;fillColor=none;align=center;verticalAlign=middle;whiteSpace=wrap;rounded=0;fontSize=34;" vertex="1" parent="VCdgVW2mn2W_y9x6BVSf-1">
          <mxGeometry x="140" y="100" width="50" height="20" as="geometry"/>
        </mxCell>
        <mxCell id="xaHaH3wOPv57AYOAN6qh-14" style="edgeStyle=none;rounded=0;orthogonalLoop=1;jettySize=auto;html=1;entryX=0.75;entryY=0;entryDx=0;entryDy=0;fontSize=34;endArrow=none;endFill=0;startArrow=classic;startFill=1;exitX=0;exitY=0.75;exitDx=0;exitDy=0;fontColor=#7EA6E0;strokeColor=#7EA6E0;" edge="1" parent="VCdgVW2mn2W_y9x6BVSf-1" source="xaHaH3wOPv57AYOAN6qh-2" target="xaHaH3wOPv57AYOAN6qh-10">
          <mxGeometry relative="1" as="geometry">
            <mxPoint x="300" y="90" as="sourcePoint"/>
            <mxPoint x="210" y="180" as="targetPoint"/>
          </mxGeometry>
        </mxCell>
      </root>
    </mxGraphModel>
  </diagram>
  <diagram id="fiLHWBCGOgVEoYiCxfeK" name="coequaliser">
    <mxGraphModel dx="590" dy="305" grid="1" gridSize="10" guides="1" tooltips="1" connect="1" arrows="1" fold="1" page="1" pageScale="1" pageWidth="827" pageHeight="1169" math="0" shadow="0">
      <root>
        <mxCell id="NL_PJOOjmmNKGYJWYnOb-0"/>
        <mxCell id="NL_PJOOjmmNKGYJWYnOb-1" parent="NL_PJOOjmmNKGYJWYnOb-0"/>
        <mxCell id="T9thewZJodRbsX-3HBYM-0" style="rounded=0;orthogonalLoop=1;jettySize=auto;html=1;fontSize=34;endArrow=none;endFill=0;startArrow=classic;startFill=1;exitX=0;exitY=0.25;exitDx=0;exitDy=0;entryX=0.25;entryY=0;entryDx=0;entryDy=0;fontColor=#7EA6E0;strokeColor=#7EA6E0;" edge="1" parent="NL_PJOOjmmNKGYJWYnOb-1" source="T9thewZJodRbsX-3HBYM-1" target="T9thewZJodRbsX-3HBYM-9">
          <mxGeometry relative="1" as="geometry">
            <mxPoint x="190" y="210" as="sourcePoint"/>
            <mxPoint x="240" y="250" as="targetPoint"/>
          </mxGeometry>
        </mxCell>
        <mxCell id="T9thewZJodRbsX-3HBYM-1" value="B" style="text;html=1;strokeColor=none;fillColor=none;align=center;verticalAlign=middle;whiteSpace=wrap;rounded=0;fontSize=34;fontColor=#7EA6E0;" vertex="1" parent="NL_PJOOjmmNKGYJWYnOb-1">
          <mxGeometry x="400" y="40" width="40" height="40" as="geometry"/>
        </mxCell>
        <mxCell id="T9thewZJodRbsX-3HBYM-2" style="edgeStyle=orthogonalEdgeStyle;rounded=0;orthogonalLoop=1;jettySize=auto;html=1;fontSize=34;endArrow=none;endFill=0;startArrow=classic;startFill=1;dashed=1;entryX=0.5;entryY=1;entryDx=0;entryDy=0;exitX=0.5;exitY=0;exitDx=0;exitDy=0;" edge="1" parent="NL_PJOOjmmNKGYJWYnOb-1" source="T9thewZJodRbsX-3HBYM-4" target="T9thewZJodRbsX-3HBYM-3">
          <mxGeometry relative="1" as="geometry">
            <mxPoint x="690" y="190" as="targetPoint"/>
            <mxPoint x="580" y="130" as="sourcePoint"/>
          </mxGeometry>
        </mxCell>
        <mxCell id="T9thewZJodRbsX-3HBYM-3" value="Q" style="text;html=1;strokeColor=none;fillColor=none;align=center;verticalAlign=middle;whiteSpace=wrap;rounded=0;fontSize=34;fontColor=#EA6B66;" vertex="1" parent="NL_PJOOjmmNKGYJWYnOb-1">
          <mxGeometry x="520" y="40" width="40" height="40" as="geometry"/>
        </mxCell>
        <mxCell id="T9thewZJodRbsX-3HBYM-4" value="X" style="text;html=1;strokeColor=none;fillColor=none;align=center;verticalAlign=middle;whiteSpace=wrap;rounded=0;fontSize=34;" vertex="1" parent="NL_PJOOjmmNKGYJWYnOb-1">
          <mxGeometry x="520" y="160" width="40" height="40" as="geometry"/>
        </mxCell>
        <mxCell id="T9thewZJodRbsX-3HBYM-5" value="&lt;span style=&quot;font-size: 24px&quot;&gt;m&lt;/span&gt;" style="text;html=1;strokeColor=none;fillColor=none;align=center;verticalAlign=middle;whiteSpace=wrap;rounded=0;fontSize=34;fontColor=#000000;" vertex="1" parent="NL_PJOOjmmNKGYJWYnOb-1">
          <mxGeometry x="440" y="110" width="40" height="20" as="geometry"/>
        </mxCell>
        <mxCell id="T9thewZJodRbsX-3HBYM-6" value="&lt;font style=&quot;font-size: 24px&quot;&gt;g&lt;/font&gt;" style="text;html=1;strokeColor=none;fillColor=none;align=center;verticalAlign=middle;whiteSpace=wrap;rounded=0;fontSize=34;fontColor=#7EA6E0;" vertex="1" parent="NL_PJOOjmmNKGYJWYnOb-1">
          <mxGeometry x="338" y="63" width="40" height="20" as="geometry"/>
        </mxCell>
        <mxCell id="T9thewZJodRbsX-3HBYM-7" value="&lt;span style=&quot;font-size: 24px&quot;&gt;f&lt;/span&gt;" style="text;html=1;strokeColor=none;fillColor=none;align=center;verticalAlign=middle;whiteSpace=wrap;rounded=0;fontSize=34;fontColor=#7EA6E0;" vertex="1" parent="NL_PJOOjmmNKGYJWYnOb-1">
          <mxGeometry x="333" y="22" width="50" height="20" as="geometry"/>
        </mxCell>
        <mxCell id="T9thewZJodRbsX-3HBYM-8" style="edgeStyle=none;rounded=0;orthogonalLoop=1;jettySize=auto;html=1;entryX=0.75;entryY=1;entryDx=0;entryDy=0;fontSize=34;endArrow=none;endFill=0;startArrow=classic;startFill=1;exitX=0;exitY=0.25;exitDx=0;exitDy=0;" edge="1" parent="NL_PJOOjmmNKGYJWYnOb-1" source="T9thewZJodRbsX-3HBYM-4" target="T9thewZJodRbsX-3HBYM-1">
          <mxGeometry relative="1" as="geometry">
            <mxPoint x="650" y="80" as="sourcePoint"/>
          </mxGeometry>
        </mxCell>
        <mxCell id="T9thewZJodRbsX-3HBYM-9" value="A" style="text;html=1;strokeColor=none;fillColor=none;align=center;verticalAlign=middle;whiteSpace=wrap;rounded=0;fontSize=34;direction=south;fontColor=#7EA6E0;" vertex="1" parent="NL_PJOOjmmNKGYJWYnOb-1">
          <mxGeometry x="280" y="40" width="40" height="40" as="geometry"/>
        </mxCell>
        <mxCell id="T9thewZJodRbsX-3HBYM-10" style="edgeStyle=orthogonalEdgeStyle;rounded=0;orthogonalLoop=1;jettySize=auto;html=1;exitX=1;exitY=0.5;exitDx=0;exitDy=0;fontSize=34;strokeColor=#EA6B66;fontColor=#EA6B66;entryX=0;entryY=0.5;entryDx=0;entryDy=0;" edge="1" parent="NL_PJOOjmmNKGYJWYnOb-1" source="T9thewZJodRbsX-3HBYM-1" target="T9thewZJodRbsX-3HBYM-3">
          <mxGeometry relative="1" as="geometry">
            <mxPoint x="570.2857142857143" y="150.28571428571428" as="sourcePoint"/>
            <mxPoint x="640" y="60.23809523809524" as="targetPoint"/>
          </mxGeometry>
        </mxCell>
        <mxCell id="T9thewZJodRbsX-3HBYM-11" value="&lt;span style=&quot;font-size: 24px&quot;&gt;q&lt;/span&gt;" style="text;html=1;strokeColor=none;fillColor=none;align=center;verticalAlign=middle;whiteSpace=wrap;rounded=0;fontSize=34;fontColor=#EA6B66;" vertex="1" parent="NL_PJOOjmmNKGYJWYnOb-1">
          <mxGeometry x="460" y="29" width="40" height="20" as="geometry"/>
        </mxCell>
        <mxCell id="T9thewZJodRbsX-3HBYM-12" value="&lt;span style=&quot;font-size: 24px&quot;&gt;u&lt;/span&gt;" style="text;html=1;strokeColor=none;fillColor=none;align=center;verticalAlign=middle;whiteSpace=wrap;rounded=0;fontSize=34;" vertex="1" parent="NL_PJOOjmmNKGYJWYnOb-1">
          <mxGeometry x="506" y="95" width="50" height="20" as="geometry"/>
        </mxCell>
        <mxCell id="T9thewZJodRbsX-3HBYM-13" style="edgeStyle=none;rounded=0;orthogonalLoop=1;jettySize=auto;html=1;entryX=0.75;entryY=0;entryDx=0;entryDy=0;fontSize=34;endArrow=none;endFill=0;startArrow=classic;startFill=1;exitX=0;exitY=0.75;exitDx=0;exitDy=0;fontColor=#7EA6E0;strokeColor=#7EA6E0;" edge="1" parent="NL_PJOOjmmNKGYJWYnOb-1" source="T9thewZJodRbsX-3HBYM-1" target="T9thewZJodRbsX-3HBYM-9">
          <mxGeometry relative="1" as="geometry">
            <mxPoint x="300" y="90" as="sourcePoint"/>
            <mxPoint x="210" y="180" as="targetPoint"/>
          </mxGeometry>
        </mxCell>
      </root>
    </mxGraphModel>
  </diagram>
  <diagram id="SA6rUJOoBvbGdrF0wuR-" name="ker">
    <mxGraphModel dx="590" dy="305" grid="1" gridSize="10" guides="1" tooltips="1" connect="1" arrows="1" fold="1" page="1" pageScale="1" pageWidth="827" pageHeight="1169" math="0" shadow="0">
      <root>
        <mxCell id="9Y-p7WkeMNbBuIpZXrGG-0"/>
        <mxCell id="9Y-p7WkeMNbBuIpZXrGG-1" parent="9Y-p7WkeMNbBuIpZXrGG-0"/>
        <mxCell id="9Y-p7WkeMNbBuIpZXrGG-2" style="rounded=0;orthogonalLoop=1;jettySize=auto;html=1;fontSize=34;endArrow=none;endFill=0;startArrow=classic;startFill=1;exitX=0;exitY=0.25;exitDx=0;exitDy=0;entryX=0.25;entryY=0;entryDx=0;entryDy=0;fontColor=#7EA6E0;strokeColor=#7EA6E0;" edge="1" parent="9Y-p7WkeMNbBuIpZXrGG-1" source="9Y-p7WkeMNbBuIpZXrGG-3" target="9Y-p7WkeMNbBuIpZXrGG-11">
          <mxGeometry relative="1" as="geometry">
            <mxPoint x="190" y="210" as="sourcePoint"/>
            <mxPoint x="240" y="250" as="targetPoint"/>
          </mxGeometry>
        </mxCell>
        <mxCell id="9Y-p7WkeMNbBuIpZXrGG-3" value="W" style="text;html=1;strokeColor=none;fillColor=none;align=center;verticalAlign=middle;whiteSpace=wrap;rounded=0;fontSize=34;fontColor=#7EA6E0;" vertex="1" parent="9Y-p7WkeMNbBuIpZXrGG-1">
          <mxGeometry x="400" y="40" width="40" height="40" as="geometry"/>
        </mxCell>
        <mxCell id="9Y-p7WkeMNbBuIpZXrGG-4" style="edgeStyle=orthogonalEdgeStyle;rounded=0;orthogonalLoop=1;jettySize=auto;html=1;exitX=0.75;exitY=1;exitDx=0;exitDy=0;fontSize=34;endArrow=none;endFill=0;startArrow=classic;startFill=1;dashed=1;entryX=0.5;entryY=0;entryDx=0;entryDy=0;" edge="1" parent="9Y-p7WkeMNbBuIpZXrGG-1" source="9Y-p7WkeMNbBuIpZXrGG-5" target="9Y-p7WkeMNbBuIpZXrGG-6">
          <mxGeometry relative="1" as="geometry">
            <mxPoint x="330" y="190" as="targetPoint"/>
          </mxGeometry>
        </mxCell>
        <mxCell id="9Y-p7WkeMNbBuIpZXrGG-5" value="ker(f)" style="text;html=1;strokeColor=none;fillColor=none;align=center;verticalAlign=middle;whiteSpace=wrap;rounded=0;fontSize=34;fontColor=#EA6B66;" vertex="1" parent="9Y-p7WkeMNbBuIpZXrGG-1">
          <mxGeometry x="120" y="40" width="80" height="40" as="geometry"/>
        </mxCell>
        <mxCell id="9Y-p7WkeMNbBuIpZXrGG-6" value="X" style="text;html=1;strokeColor=none;fillColor=none;align=center;verticalAlign=middle;whiteSpace=wrap;rounded=0;fontSize=34;" vertex="1" parent="9Y-p7WkeMNbBuIpZXrGG-1">
          <mxGeometry x="160" y="160" width="40" height="40" as="geometry"/>
        </mxCell>
        <mxCell id="9Y-p7WkeMNbBuIpZXrGG-7" value="&lt;span style=&quot;font-size: 24px&quot;&gt;m&lt;/span&gt;" style="text;html=1;strokeColor=none;fillColor=none;align=center;verticalAlign=middle;whiteSpace=wrap;rounded=0;fontSize=34;fontColor=#000000;" vertex="1" parent="9Y-p7WkeMNbBuIpZXrGG-1">
          <mxGeometry x="240" y="110" width="40" height="20" as="geometry"/>
        </mxCell>
        <mxCell id="9Y-p7WkeMNbBuIpZXrGG-8" value="&lt;font style=&quot;font-size: 24px&quot;&gt;0&lt;/font&gt;" style="text;html=1;strokeColor=none;fillColor=none;align=center;verticalAlign=middle;whiteSpace=wrap;rounded=0;fontSize=34;fontColor=#7EA6E0;" vertex="1" parent="9Y-p7WkeMNbBuIpZXrGG-1">
          <mxGeometry x="338" y="65" width="40" height="20" as="geometry"/>
        </mxCell>
        <mxCell id="9Y-p7WkeMNbBuIpZXrGG-9" value="&lt;span style=&quot;font-size: 24px&quot;&gt;f&lt;/span&gt;" style="text;html=1;strokeColor=none;fillColor=none;align=center;verticalAlign=middle;whiteSpace=wrap;rounded=0;fontSize=34;fontColor=#7EA6E0;" vertex="1" parent="9Y-p7WkeMNbBuIpZXrGG-1">
          <mxGeometry x="333" y="22" width="50" height="20" as="geometry"/>
        </mxCell>
        <mxCell id="9Y-p7WkeMNbBuIpZXrGG-10" style="edgeStyle=none;rounded=0;orthogonalLoop=1;jettySize=auto;html=1;entryX=1;entryY=0.25;entryDx=0;entryDy=0;fontSize=34;endArrow=none;endFill=0;startArrow=classic;startFill=1;exitX=1;exitY=0.75;exitDx=0;exitDy=0;" edge="1" parent="9Y-p7WkeMNbBuIpZXrGG-1" source="9Y-p7WkeMNbBuIpZXrGG-11" target="9Y-p7WkeMNbBuIpZXrGG-6">
          <mxGeometry relative="1" as="geometry">
            <mxPoint x="410" y="200" as="sourcePoint"/>
          </mxGeometry>
        </mxCell>
        <mxCell id="9Y-p7WkeMNbBuIpZXrGG-11" value="V" style="text;html=1;strokeColor=none;fillColor=none;align=center;verticalAlign=middle;whiteSpace=wrap;rounded=0;fontSize=34;direction=south;fontColor=#7EA6E0;" vertex="1" parent="9Y-p7WkeMNbBuIpZXrGG-1">
          <mxGeometry x="280" y="40" width="40" height="40" as="geometry"/>
        </mxCell>
        <mxCell id="9Y-p7WkeMNbBuIpZXrGG-12" style="edgeStyle=orthogonalEdgeStyle;rounded=0;orthogonalLoop=1;jettySize=auto;html=1;exitX=1;exitY=0.5;exitDx=0;exitDy=0;fontSize=34;strokeColor=#EA6B66;fontColor=#EA6B66;entryX=0.5;entryY=1;entryDx=0;entryDy=0;" edge="1" parent="9Y-p7WkeMNbBuIpZXrGG-1" source="9Y-p7WkeMNbBuIpZXrGG-5" target="9Y-p7WkeMNbBuIpZXrGG-11">
          <mxGeometry relative="1" as="geometry">
            <mxPoint x="210.28571428571433" y="150.28571428571428" as="sourcePoint"/>
            <mxPoint x="370" y="160" as="targetPoint"/>
          </mxGeometry>
        </mxCell>
        <mxCell id="9Y-p7WkeMNbBuIpZXrGG-13" value="&lt;span style=&quot;font-size: 24px&quot;&gt;e&lt;/span&gt;" style="text;html=1;strokeColor=none;fillColor=none;align=center;verticalAlign=middle;whiteSpace=wrap;rounded=0;fontSize=34;fontColor=#EA6B66;" vertex="1" parent="9Y-p7WkeMNbBuIpZXrGG-1">
          <mxGeometry x="215" y="32" width="40" height="20" as="geometry"/>
        </mxCell>
        <mxCell id="9Y-p7WkeMNbBuIpZXrGG-14" style="edgeStyle=none;rounded=0;orthogonalLoop=1;jettySize=auto;html=1;entryX=0.75;entryY=0;entryDx=0;entryDy=0;fontSize=34;endArrow=none;endFill=0;startArrow=classic;startFill=1;exitX=0;exitY=0.75;exitDx=0;exitDy=0;fontColor=#7EA6E0;strokeColor=#7EA6E0;" edge="1" parent="9Y-p7WkeMNbBuIpZXrGG-1" source="9Y-p7WkeMNbBuIpZXrGG-3" target="9Y-p7WkeMNbBuIpZXrGG-11">
          <mxGeometry relative="1" as="geometry">
            <mxPoint x="300" y="90" as="sourcePoint"/>
            <mxPoint x="210" y="180" as="targetPoint"/>
          </mxGeometry>
        </mxCell>
        <mxCell id="0JDLSVNyyhyzZucG1-0b-0" value="&lt;span style=&quot;font-size: 24px&quot;&gt;u&lt;/span&gt;" style="text;html=1;strokeColor=none;fillColor=none;align=center;verticalAlign=middle;whiteSpace=wrap;rounded=0;fontSize=34;" vertex="1" parent="9Y-p7WkeMNbBuIpZXrGG-1">
          <mxGeometry x="142" y="100" width="50" height="20" as="geometry"/>
        </mxCell>
      </root>
    </mxGraphModel>
  </diagram>
  <diagram id="oTRXXG3am0zB359Lgnw2" name="coker">
    <mxGraphModel dx="410" dy="256" grid="1" gridSize="10" guides="1" tooltips="1" connect="1" arrows="1" fold="1" page="1" pageScale="1" pageWidth="827" pageHeight="1169" math="0" shadow="0">
      <root>
        <mxCell id="AHLgJtnJ9SNkfyt4dSv_-0"/>
        <mxCell id="AHLgJtnJ9SNkfyt4dSv_-1" parent="AHLgJtnJ9SNkfyt4dSv_-0"/>
        <mxCell id="AHLgJtnJ9SNkfyt4dSv_-2" style="rounded=0;orthogonalLoop=1;jettySize=auto;html=1;fontSize=34;endArrow=none;endFill=0;startArrow=classic;startFill=1;exitX=0;exitY=0.25;exitDx=0;exitDy=0;entryX=0.25;entryY=0;entryDx=0;entryDy=0;fontColor=#7EA6E0;strokeColor=#7EA6E0;" edge="1" parent="AHLgJtnJ9SNkfyt4dSv_-1" source="AHLgJtnJ9SNkfyt4dSv_-3" target="AHLgJtnJ9SNkfyt4dSv_-11">
          <mxGeometry relative="1" as="geometry">
            <mxPoint x="190" y="210" as="sourcePoint"/>
            <mxPoint x="240" y="250" as="targetPoint"/>
          </mxGeometry>
        </mxCell>
        <mxCell id="AHLgJtnJ9SNkfyt4dSv_-3" value="W" style="text;html=1;strokeColor=none;fillColor=none;align=center;verticalAlign=middle;whiteSpace=wrap;rounded=0;fontSize=34;fontColor=#7EA6E0;" vertex="1" parent="AHLgJtnJ9SNkfyt4dSv_-1">
          <mxGeometry x="400" y="40" width="40" height="40" as="geometry"/>
        </mxCell>
        <mxCell id="AHLgJtnJ9SNkfyt4dSv_-4" style="edgeStyle=orthogonalEdgeStyle;rounded=0;orthogonalLoop=1;jettySize=auto;html=1;fontSize=34;endArrow=none;endFill=0;startArrow=classic;startFill=1;dashed=1;entryX=0.184;entryY=1.01;entryDx=0;entryDy=0;exitX=0.5;exitY=0;exitDx=0;exitDy=0;entryPerimeter=0;" edge="1" parent="AHLgJtnJ9SNkfyt4dSv_-1" source="AHLgJtnJ9SNkfyt4dSv_-6" target="AHLgJtnJ9SNkfyt4dSv_-5">
          <mxGeometry relative="1" as="geometry">
            <mxPoint x="690" y="190" as="targetPoint"/>
            <mxPoint x="580" y="130" as="sourcePoint"/>
          </mxGeometry>
        </mxCell>
        <mxCell id="AHLgJtnJ9SNkfyt4dSv_-5" value="coker f" style="text;html=1;strokeColor=none;fillColor=none;align=center;verticalAlign=middle;whiteSpace=wrap;rounded=0;fontSize=34;fontColor=#EA6B66;" vertex="1" parent="AHLgJtnJ9SNkfyt4dSv_-1">
          <mxGeometry x="520" y="40" width="110" height="40" as="geometry"/>
        </mxCell>
        <mxCell id="AHLgJtnJ9SNkfyt4dSv_-6" value="X" style="text;html=1;strokeColor=none;fillColor=none;align=center;verticalAlign=middle;whiteSpace=wrap;rounded=0;fontSize=34;" vertex="1" parent="AHLgJtnJ9SNkfyt4dSv_-1">
          <mxGeometry x="520" y="160" width="40" height="40" as="geometry"/>
        </mxCell>
        <mxCell id="AHLgJtnJ9SNkfyt4dSv_-7" value="&lt;span style=&quot;font-size: 24px&quot;&gt;m&lt;/span&gt;" style="text;html=1;strokeColor=none;fillColor=none;align=center;verticalAlign=middle;whiteSpace=wrap;rounded=0;fontSize=34;fontColor=#000000;" vertex="1" parent="AHLgJtnJ9SNkfyt4dSv_-1">
          <mxGeometry x="440" y="110" width="40" height="20" as="geometry"/>
        </mxCell>
        <mxCell id="AHLgJtnJ9SNkfyt4dSv_-8" value="&lt;font style=&quot;font-size: 24px&quot;&gt;0&lt;/font&gt;" style="text;html=1;strokeColor=none;fillColor=none;align=center;verticalAlign=middle;whiteSpace=wrap;rounded=0;fontSize=34;fontColor=#7EA6E0;" vertex="1" parent="AHLgJtnJ9SNkfyt4dSv_-1">
          <mxGeometry x="338" y="65" width="40" height="20" as="geometry"/>
        </mxCell>
        <mxCell id="AHLgJtnJ9SNkfyt4dSv_-9" value="&lt;span style=&quot;font-size: 24px&quot;&gt;f&lt;/span&gt;" style="text;html=1;strokeColor=none;fillColor=none;align=center;verticalAlign=middle;whiteSpace=wrap;rounded=0;fontSize=34;fontColor=#7EA6E0;" vertex="1" parent="AHLgJtnJ9SNkfyt4dSv_-1">
          <mxGeometry x="333" y="22" width="50" height="20" as="geometry"/>
        </mxCell>
        <mxCell id="AHLgJtnJ9SNkfyt4dSv_-10" style="edgeStyle=none;rounded=0;orthogonalLoop=1;jettySize=auto;html=1;entryX=0.75;entryY=1;entryDx=0;entryDy=0;fontSize=34;endArrow=none;endFill=0;startArrow=classic;startFill=1;exitX=0;exitY=0.25;exitDx=0;exitDy=0;" edge="1" parent="AHLgJtnJ9SNkfyt4dSv_-1" source="AHLgJtnJ9SNkfyt4dSv_-6" target="AHLgJtnJ9SNkfyt4dSv_-3">
          <mxGeometry relative="1" as="geometry">
            <mxPoint x="650" y="80" as="sourcePoint"/>
          </mxGeometry>
        </mxCell>
        <mxCell id="AHLgJtnJ9SNkfyt4dSv_-11" value="V" style="text;html=1;strokeColor=none;fillColor=none;align=center;verticalAlign=middle;whiteSpace=wrap;rounded=0;fontSize=34;direction=south;fontColor=#7EA6E0;" vertex="1" parent="AHLgJtnJ9SNkfyt4dSv_-1">
          <mxGeometry x="280" y="40" width="40" height="40" as="geometry"/>
        </mxCell>
        <mxCell id="AHLgJtnJ9SNkfyt4dSv_-12" style="edgeStyle=orthogonalEdgeStyle;rounded=0;orthogonalLoop=1;jettySize=auto;html=1;exitX=1;exitY=0.5;exitDx=0;exitDy=0;fontSize=34;strokeColor=#EA6B66;fontColor=#EA6B66;entryX=0;entryY=0.5;entryDx=0;entryDy=0;" edge="1" parent="AHLgJtnJ9SNkfyt4dSv_-1" source="AHLgJtnJ9SNkfyt4dSv_-3" target="AHLgJtnJ9SNkfyt4dSv_-5">
          <mxGeometry relative="1" as="geometry">
            <mxPoint x="570.2857142857143" y="150.28571428571428" as="sourcePoint"/>
            <mxPoint x="640" y="60.23809523809524" as="targetPoint"/>
          </mxGeometry>
        </mxCell>
        <mxCell id="AHLgJtnJ9SNkfyt4dSv_-13" value="&lt;span style=&quot;font-size: 24px&quot;&gt;q&lt;/span&gt;" style="text;html=1;strokeColor=none;fillColor=none;align=center;verticalAlign=middle;whiteSpace=wrap;rounded=0;fontSize=34;fontColor=#EA6B66;" vertex="1" parent="AHLgJtnJ9SNkfyt4dSv_-1">
          <mxGeometry x="460" y="29" width="40" height="20" as="geometry"/>
        </mxCell>
        <mxCell id="AHLgJtnJ9SNkfyt4dSv_-14" value="&lt;span style=&quot;font-size: 24px&quot;&gt;u&lt;/span&gt;" style="text;html=1;strokeColor=none;fillColor=none;align=center;verticalAlign=middle;whiteSpace=wrap;rounded=0;fontSize=34;" vertex="1" parent="AHLgJtnJ9SNkfyt4dSv_-1">
          <mxGeometry x="506" y="95" width="50" height="20" as="geometry"/>
        </mxCell>
        <mxCell id="AHLgJtnJ9SNkfyt4dSv_-15" style="edgeStyle=none;rounded=0;orthogonalLoop=1;jettySize=auto;html=1;entryX=0.75;entryY=0;entryDx=0;entryDy=0;fontSize=34;endArrow=none;endFill=0;startArrow=classic;startFill=1;exitX=0;exitY=0.75;exitDx=0;exitDy=0;fontColor=#7EA6E0;strokeColor=#7EA6E0;" edge="1" parent="AHLgJtnJ9SNkfyt4dSv_-1" source="AHLgJtnJ9SNkfyt4dSv_-3" target="AHLgJtnJ9SNkfyt4dSv_-11">
          <mxGeometry relative="1" as="geometry">
            <mxPoint x="300" y="90" as="sourcePoint"/>
            <mxPoint x="210" y="180" as="targetPoint"/>
          </mxGeometry>
        </mxCell>
      </root>
    </mxGraphModel>
  </diagram>
  <diagram id="32sebC94eW5UKzRtFkT5" name="wtf coker">
    <mxGraphModel dx="585" dy="366" grid="1" gridSize="10" guides="1" tooltips="1" connect="1" arrows="1" fold="1" page="1" pageScale="1" pageWidth="827" pageHeight="1169" math="0" shadow="0">
      <root>
        <mxCell id="oWldNI4HzPwtAngfB0Vy-0"/>
        <mxCell id="oWldNI4HzPwtAngfB0Vy-1" parent="oWldNI4HzPwtAngfB0Vy-0"/>
        <mxCell id="oWldNI4HzPwtAngfB0Vy-24" value="" style="shape=manualInput;whiteSpace=wrap;html=1;strokeColor=#000000;fillColor=#CCFFCC;fontSize=28;fontColor=#000000;size=160;flipV=1;flipH=1;" vertex="1" parent="oWldNI4HzPwtAngfB0Vy-1">
          <mxGeometry x="280" y="80" width="120" height="200" as="geometry"/>
        </mxCell>
        <mxCell id="oWldNI4HzPwtAngfB0Vy-16" value="" style="shape=manualInput;whiteSpace=wrap;html=1;strokeColor=#000000;fillColor=#CCFFCC;fontSize=28;fontColor=#000000;size=120;flipV=1;flipH=1;" vertex="1" parent="oWldNI4HzPwtAngfB0Vy-1">
          <mxGeometry x="120" y="120" width="120" height="200" as="geometry"/>
        </mxCell>
        <mxCell id="oWldNI4HzPwtAngfB0Vy-2" value="" style="rounded=0;whiteSpace=wrap;html=1;strokeColor=#000000;fontSize=28;fontColor=#7EA6E0;" vertex="1" parent="oWldNI4HzPwtAngfB0Vy-1">
          <mxGeometry x="80" y="80" width="40" height="40" as="geometry"/>
        </mxCell>
        <mxCell id="oWldNI4HzPwtAngfB0Vy-3" value="&lt;font color=&quot;#000000&quot;&gt;0&lt;/font&gt;" style="text;html=1;strokeColor=none;fillColor=none;align=center;verticalAlign=middle;whiteSpace=wrap;rounded=0;fontSize=28;fontColor=#7EA6E0;" vertex="1" parent="oWldNI4HzPwtAngfB0Vy-1">
          <mxGeometry x="80" y="80" width="40" height="40" as="geometry"/>
        </mxCell>
        <mxCell id="oWldNI4HzPwtAngfB0Vy-4" value="" style="rounded=0;whiteSpace=wrap;html=1;strokeColor=#000000;fontSize=28;fontColor=#333333;fillColor=#B3B3B3;" vertex="1" parent="oWldNI4HzPwtAngfB0Vy-1">
          <mxGeometry x="80" y="120" width="40" height="80" as="geometry"/>
        </mxCell>
        <mxCell id="oWldNI4HzPwtAngfB0Vy-5" value="" style="rounded=0;whiteSpace=wrap;html=1;strokeColor=#000000;fontSize=28;fontColor=#7EA6E0;fillColor=#333333;" vertex="1" parent="oWldNI4HzPwtAngfB0Vy-1">
          <mxGeometry x="80" y="200" width="40" height="120" as="geometry"/>
        </mxCell>
        <mxCell id="oWldNI4HzPwtAngfB0Vy-6" value="&lt;font color=&quot;#000000&quot;&gt;V&lt;/font&gt;" style="text;html=1;strokeColor=none;fillColor=none;align=center;verticalAlign=middle;whiteSpace=wrap;rounded=0;fontSize=28;fontColor=#7EA6E0;" vertex="1" parent="oWldNI4HzPwtAngfB0Vy-1">
          <mxGeometry x="80" y="320" width="40" height="40" as="geometry"/>
        </mxCell>
        <mxCell id="oWldNI4HzPwtAngfB0Vy-7" value="ker(f)" style="text;html=1;strokeColor=none;fillColor=none;align=center;verticalAlign=middle;whiteSpace=wrap;rounded=0;fontSize=28;fontColor=#000000;" vertex="1" parent="oWldNI4HzPwtAngfB0Vy-1">
          <mxGeometry x="24" y="146" width="40" height="20" as="geometry"/>
        </mxCell>
        <mxCell id="oWldNI4HzPwtAngfB0Vy-8" value="" style="rounded=0;whiteSpace=wrap;html=1;strokeColor=#000000;fontSize=28;fontColor=#7EA6E0;" vertex="1" parent="oWldNI4HzPwtAngfB0Vy-1">
          <mxGeometry x="240" y="80" width="40" height="40" as="geometry"/>
        </mxCell>
        <mxCell id="oWldNI4HzPwtAngfB0Vy-9" value="&lt;font color=&quot;#000000&quot;&gt;0&lt;/font&gt;" style="text;html=1;strokeColor=none;fillColor=none;align=center;verticalAlign=middle;whiteSpace=wrap;rounded=0;fontSize=28;fontColor=#7EA6E0;" vertex="1" parent="oWldNI4HzPwtAngfB0Vy-1">
          <mxGeometry x="240" y="80" width="40" height="40" as="geometry"/>
        </mxCell>
        <mxCell id="oWldNI4HzPwtAngfB0Vy-10" value="" style="rounded=0;whiteSpace=wrap;html=1;strokeColor=#000000;fontSize=28;fontColor=#333333;fillColor=#FFFFFF;" vertex="1" parent="oWldNI4HzPwtAngfB0Vy-1">
          <mxGeometry x="240" y="200" width="40" height="80" as="geometry"/>
        </mxCell>
        <mxCell id="oWldNI4HzPwtAngfB0Vy-11" value="" style="rounded=0;whiteSpace=wrap;html=1;strokeColor=#000000;fontSize=28;fontColor=#7EA6E0;fillColor=#333333;" vertex="1" parent="oWldNI4HzPwtAngfB0Vy-1">
          <mxGeometry x="240" y="120" width="40" height="80" as="geometry"/>
        </mxCell>
        <mxCell id="oWldNI4HzPwtAngfB0Vy-13" value="Im(f)" style="text;html=1;strokeColor=none;fillColor=none;align=center;verticalAlign=middle;whiteSpace=wrap;rounded=0;fontSize=28;fontColor=#000000;" vertex="1" parent="oWldNI4HzPwtAngfB0Vy-1">
          <mxGeometry x="290" y="146" width="40" height="20" as="geometry"/>
        </mxCell>
        <mxCell id="oWldNI4HzPwtAngfB0Vy-14" value="" style="shape=manualInput;whiteSpace=wrap;html=1;strokeColor=#000000;fillColor=#FFCCCC;fontSize=28;fontColor=#000000;size=81;flipV=1;flipH=1;" vertex="1" parent="oWldNI4HzPwtAngfB0Vy-1">
          <mxGeometry x="120" y="80" width="120" height="120" as="geometry"/>
        </mxCell>
        <mxCell id="oWldNI4HzPwtAngfB0Vy-17" value="f" style="text;html=1;strokeColor=none;fillColor=none;align=center;verticalAlign=middle;whiteSpace=wrap;rounded=0;fontSize=28;fontColor=#000000;" vertex="1" parent="oWldNI4HzPwtAngfB0Vy-1">
          <mxGeometry x="160" y="50" width="40" height="20" as="geometry"/>
        </mxCell>
        <mxCell id="oWldNI4HzPwtAngfB0Vy-18" value="&lt;font color=&quot;#000000&quot;&gt;W&lt;/font&gt;" style="text;html=1;strokeColor=none;fillColor=none;align=center;verticalAlign=middle;whiteSpace=wrap;rounded=0;fontSize=28;fontColor=#7EA6E0;" vertex="1" parent="oWldNI4HzPwtAngfB0Vy-1">
          <mxGeometry x="240" y="290" width="40" height="40" as="geometry"/>
        </mxCell>
        <mxCell id="oWldNI4HzPwtAngfB0Vy-19" value="" style="rounded=0;whiteSpace=wrap;html=1;strokeColor=#000000;fontSize=28;fontColor=#7EA6E0;" vertex="1" parent="oWldNI4HzPwtAngfB0Vy-1">
          <mxGeometry x="400" y="80" width="40" height="40" as="geometry"/>
        </mxCell>
        <mxCell id="oWldNI4HzPwtAngfB0Vy-20" value="&lt;font color=&quot;#000000&quot;&gt;0&lt;/font&gt;" style="text;html=1;strokeColor=none;fillColor=none;align=center;verticalAlign=middle;whiteSpace=wrap;rounded=0;fontSize=28;fontColor=#7EA6E0;" vertex="1" parent="oWldNI4HzPwtAngfB0Vy-1">
          <mxGeometry x="400" y="80" width="40" height="40" as="geometry"/>
        </mxCell>
        <mxCell id="oWldNI4HzPwtAngfB0Vy-21" value="" style="rounded=0;whiteSpace=wrap;html=1;strokeColor=#000000;fontSize=28;fontColor=#333333;fillColor=#FFFFFF;" vertex="1" parent="oWldNI4HzPwtAngfB0Vy-1">
          <mxGeometry x="400" y="120" width="40" height="80" as="geometry"/>
        </mxCell>
        <mxCell id="oWldNI4HzPwtAngfB0Vy-25" value="&lt;font color=&quot;#000000&quot;&gt;Q&lt;/font&gt;" style="text;html=1;strokeColor=none;fillColor=none;align=center;verticalAlign=middle;whiteSpace=wrap;rounded=0;fontSize=28;fontColor=#7EA6E0;" vertex="1" parent="oWldNI4HzPwtAngfB0Vy-1">
          <mxGeometry x="400" y="210" width="40" height="40" as="geometry"/>
        </mxCell>
        <mxCell id="oWldNI4HzPwtAngfB0Vy-26" value="q" style="text;html=1;strokeColor=none;fillColor=none;align=center;verticalAlign=middle;whiteSpace=wrap;rounded=0;fontSize=28;fontColor=#000000;" vertex="1" parent="oWldNI4HzPwtAngfB0Vy-1">
          <mxGeometry x="320" y="50" width="40" height="20" as="geometry"/>
        </mxCell>
      </root>
    </mxGraphModel>
  </diagram>
  <diagram id="Hn_5ORgwGJn9wgFiciij" name="eq poset">
    <mxGraphModel dx="585" dy="366" grid="1" gridSize="10" guides="1" tooltips="1" connect="1" arrows="1" fold="1" page="1" pageScale="1" pageWidth="827" pageHeight="1169" math="0" shadow="0">
      <root>
        <mxCell id="UywKfdjhsr4ChNX-cuZ9-0"/>
        <mxCell id="UywKfdjhsr4ChNX-cuZ9-1" parent="UywKfdjhsr4ChNX-cuZ9-0"/>
        <mxCell id="UywKfdjhsr4ChNX-cuZ9-2" style="rounded=0;orthogonalLoop=1;jettySize=auto;html=1;fontSize=34;endArrow=none;endFill=0;startArrow=classic;startFill=1;exitX=0;exitY=0.25;exitDx=0;exitDy=0;entryX=0.25;entryY=0;entryDx=0;entryDy=0;fontColor=#000000;strokeColor=#000000;" edge="1" parent="UywKfdjhsr4ChNX-cuZ9-1" source="UywKfdjhsr4ChNX-cuZ9-3" target="UywKfdjhsr4ChNX-cuZ9-11">
          <mxGeometry relative="1" as="geometry">
            <mxPoint x="190" y="210" as="sourcePoint"/>
            <mxPoint x="240" y="250" as="targetPoint"/>
          </mxGeometry>
        </mxCell>
        <mxCell id="UywKfdjhsr4ChNX-cuZ9-3" value="b" style="text;html=1;strokeColor=none;fillColor=none;align=center;verticalAlign=middle;whiteSpace=wrap;rounded=0;fontSize=34;fontColor=#000000;" vertex="1" parent="UywKfdjhsr4ChNX-cuZ9-1">
          <mxGeometry x="400" y="40" width="40" height="40" as="geometry"/>
        </mxCell>
        <mxCell id="UywKfdjhsr4ChNX-cuZ9-4" style="edgeStyle=orthogonalEdgeStyle;rounded=0;orthogonalLoop=1;jettySize=auto;html=1;exitX=0.5;exitY=1;exitDx=0;exitDy=0;fontSize=34;endArrow=none;endFill=0;startArrow=classic;startFill=1;dashed=1;entryX=0.5;entryY=0;entryDx=0;entryDy=0;fontColor=#000000;" edge="1" parent="UywKfdjhsr4ChNX-cuZ9-1" source="UywKfdjhsr4ChNX-cuZ9-5" target="UywKfdjhsr4ChNX-cuZ9-6">
          <mxGeometry relative="1" as="geometry">
            <mxPoint x="330" y="190" as="targetPoint"/>
          </mxGeometry>
        </mxCell>
        <mxCell id="UywKfdjhsr4ChNX-cuZ9-5" value="e" style="text;html=1;strokeColor=none;fillColor=none;align=center;verticalAlign=middle;whiteSpace=wrap;rounded=0;fontSize=34;fontColor=#000000;" vertex="1" parent="UywKfdjhsr4ChNX-cuZ9-1">
          <mxGeometry x="160" y="40" width="40" height="40" as="geometry"/>
        </mxCell>
        <mxCell id="UywKfdjhsr4ChNX-cuZ9-6" value="X" style="text;html=1;strokeColor=none;fillColor=none;align=center;verticalAlign=middle;whiteSpace=wrap;rounded=0;fontSize=34;fontColor=#000000;" vertex="1" parent="UywKfdjhsr4ChNX-cuZ9-1">
          <mxGeometry x="160" y="160" width="40" height="40" as="geometry"/>
        </mxCell>
        <mxCell id="UywKfdjhsr4ChNX-cuZ9-7" value="&lt;span style=&quot;font-size: 21px&quot;&gt;x&amp;nbsp;&lt;/span&gt;&lt;span style=&quot;font-size: 21px ; background-color: rgb(255 , 255 , 255)&quot;&gt;≤ a&lt;/span&gt;" style="text;html=1;strokeColor=none;fillColor=none;align=center;verticalAlign=middle;whiteSpace=wrap;rounded=0;fontSize=34;fontColor=#000000;" vertex="1" parent="UywKfdjhsr4ChNX-cuZ9-1">
          <mxGeometry x="243" y="110" width="60" height="20" as="geometry"/>
        </mxCell>
        <mxCell id="UywKfdjhsr4ChNX-cuZ9-8" value="&lt;span style=&quot;font-size: 21px;&quot;&gt;a&amp;nbsp;&lt;/span&gt;&lt;span style=&quot;font-size: 21px; background-color: rgb(255, 255, 255);&quot;&gt;≤ b&lt;/span&gt;" style="text;html=1;strokeColor=none;fillColor=none;align=center;verticalAlign=middle;whiteSpace=wrap;rounded=0;fontSize=21;fontColor=#000000;fontFamily=Helvetica;" vertex="1" parent="UywKfdjhsr4ChNX-cuZ9-1">
          <mxGeometry x="328" y="65" width="60" height="20" as="geometry"/>
        </mxCell>
        <mxCell id="UywKfdjhsr4ChNX-cuZ9-9" value="&lt;span style=&quot;font-size: 21px;&quot;&gt;a&amp;nbsp;&lt;/span&gt;&lt;span style=&quot;font-size: 21px; background-color: rgb(255, 255, 255);&quot;&gt;≤ b&lt;/span&gt;" style="text;html=1;strokeColor=none;fillColor=none;align=center;verticalAlign=middle;whiteSpace=wrap;rounded=0;fontSize=21;fontColor=#000000;fontFamily=Helvetica;" vertex="1" parent="UywKfdjhsr4ChNX-cuZ9-1">
          <mxGeometry x="333" y="26" width="50" height="20" as="geometry"/>
        </mxCell>
        <mxCell id="UywKfdjhsr4ChNX-cuZ9-10" style="edgeStyle=none;rounded=0;orthogonalLoop=1;jettySize=auto;html=1;entryX=1;entryY=0.25;entryDx=0;entryDy=0;fontSize=34;endArrow=none;endFill=0;startArrow=classic;startFill=1;exitX=1;exitY=0.75;exitDx=0;exitDy=0;fontColor=#000000;" edge="1" parent="UywKfdjhsr4ChNX-cuZ9-1" source="UywKfdjhsr4ChNX-cuZ9-11" target="UywKfdjhsr4ChNX-cuZ9-6">
          <mxGeometry relative="1" as="geometry">
            <mxPoint x="410" y="200" as="sourcePoint"/>
          </mxGeometry>
        </mxCell>
        <mxCell id="UywKfdjhsr4ChNX-cuZ9-11" value="a" style="text;html=1;strokeColor=none;fillColor=none;align=center;verticalAlign=middle;whiteSpace=wrap;rounded=0;fontSize=34;direction=south;fontColor=#000000;" vertex="1" parent="UywKfdjhsr4ChNX-cuZ9-1">
          <mxGeometry x="280" y="40" width="40" height="40" as="geometry"/>
        </mxCell>
        <mxCell id="UywKfdjhsr4ChNX-cuZ9-12" style="edgeStyle=orthogonalEdgeStyle;rounded=0;orthogonalLoop=1;jettySize=auto;html=1;exitX=1;exitY=0.5;exitDx=0;exitDy=0;fontSize=34;strokeColor=#000000;fontColor=#000000;entryX=0.5;entryY=1;entryDx=0;entryDy=0;" edge="1" parent="UywKfdjhsr4ChNX-cuZ9-1" source="UywKfdjhsr4ChNX-cuZ9-5" target="UywKfdjhsr4ChNX-cuZ9-11">
          <mxGeometry relative="1" as="geometry">
            <mxPoint x="210.28571428571433" y="150.28571428571428" as="sourcePoint"/>
            <mxPoint x="370" y="160" as="targetPoint"/>
          </mxGeometry>
        </mxCell>
        <mxCell id="UywKfdjhsr4ChNX-cuZ9-13" value="&lt;font style=&quot;font-size: 21px&quot;&gt;e&amp;nbsp;&lt;span style=&quot;background-color: rgb(255 , 255 , 255)&quot;&gt;≤ a&lt;/span&gt;&lt;/font&gt;" style="text;html=1;strokeColor=none;fillColor=none;align=center;verticalAlign=middle;whiteSpace=wrap;rounded=0;fontSize=34;fontColor=#000000;fontFamily=Helvetica;" vertex="1" parent="UywKfdjhsr4ChNX-cuZ9-1">
          <mxGeometry x="210" y="32" width="50" height="20" as="geometry"/>
        </mxCell>
        <mxCell id="UywKfdjhsr4ChNX-cuZ9-14" value="&lt;span style=&quot;font-size: 21px&quot;&gt;x&amp;nbsp;&lt;/span&gt;&lt;span style=&quot;font-size: 21px ; background-color: rgb(255 , 255 , 255)&quot;&gt;≤ e&lt;/span&gt;" style="text;html=1;strokeColor=none;fillColor=none;align=center;verticalAlign=middle;whiteSpace=wrap;rounded=0;fontSize=34;fontColor=#000000;" vertex="1" parent="UywKfdjhsr4ChNX-cuZ9-1">
          <mxGeometry x="130" y="100" width="50" height="20" as="geometry"/>
        </mxCell>
        <mxCell id="UywKfdjhsr4ChNX-cuZ9-15" style="edgeStyle=none;rounded=0;orthogonalLoop=1;jettySize=auto;html=1;entryX=0.75;entryY=0;entryDx=0;entryDy=0;fontSize=34;endArrow=none;endFill=0;startArrow=classic;startFill=1;exitX=0;exitY=0.75;exitDx=0;exitDy=0;fontColor=#000000;strokeColor=#000000;" edge="1" parent="UywKfdjhsr4ChNX-cuZ9-1" source="UywKfdjhsr4ChNX-cuZ9-3" target="UywKfdjhsr4ChNX-cuZ9-11">
          <mxGeometry relative="1" as="geometry">
            <mxPoint x="300" y="90" as="sourcePoint"/>
            <mxPoint x="210" y="180" as="targetPoint"/>
          </mxGeometry>
        </mxCell>
      </root>
    </mxGraphModel>
  </diagram>
  <diagram id="CwepO9E2PUcQ9pJrcYbV" name="pullback">
    <mxGraphModel dx="707" dy="366" grid="1" gridSize="10" guides="1" tooltips="1" connect="1" arrows="1" fold="1" page="1" pageScale="1" pageWidth="827" pageHeight="1169" math="0" shadow="0">
      <root>
        <mxCell id="dba63wQ86pWpbAEEDj6c-0"/>
        <mxCell id="dba63wQ86pWpbAEEDj6c-1" parent="dba63wQ86pWpbAEEDj6c-0"/>
        <mxCell id="dba63wQ86pWpbAEEDj6c-2" style="edgeStyle=orthogonalEdgeStyle;rounded=0;orthogonalLoop=1;jettySize=auto;html=1;exitX=1;exitY=0.5;exitDx=0;exitDy=0;fontSize=34;strokeColor=#EA6B66;fontColor=#EA6B66;entryX=0;entryY=0.5;entryDx=0;entryDy=0;" edge="1" parent="dba63wQ86pWpbAEEDj6c-1" source="dba63wQ86pWpbAEEDj6c-6" target="dba63wQ86pWpbAEEDj6c-4">
          <mxGeometry relative="1" as="geometry">
            <mxPoint x="230" y="170" as="targetPoint"/>
          </mxGeometry>
        </mxCell>
        <mxCell id="dba63wQ86pWpbAEEDj6c-3" style="rounded=0;orthogonalLoop=1;jettySize=auto;html=1;fontSize=34;endArrow=none;endFill=0;startArrow=classic;startFill=1;exitX=0;exitY=0;exitDx=0;exitDy=0;entryX=1;entryY=0.5;entryDx=0;entryDy=0;" edge="1" parent="dba63wQ86pWpbAEEDj6c-1" source="dba63wQ86pWpbAEEDj6c-4" target="dba63wQ86pWpbAEEDj6c-7">
          <mxGeometry relative="1" as="geometry">
            <mxPoint x="190" y="210" as="sourcePoint"/>
            <mxPoint x="240" y="250" as="targetPoint"/>
          </mxGeometry>
        </mxCell>
        <mxCell id="dba63wQ86pWpbAEEDj6c-4" value="A" style="text;html=1;strokeColor=none;fillColor=none;align=center;verticalAlign=middle;whiteSpace=wrap;rounded=0;fontSize=34;fontColor=#7EA6E0;direction=east;" vertex="1" parent="dba63wQ86pWpbAEEDj6c-1">
          <mxGeometry x="680" y="240" width="40" height="40" as="geometry"/>
        </mxCell>
        <mxCell id="dba63wQ86pWpbAEEDj6c-5" style="rounded=0;orthogonalLoop=1;jettySize=auto;html=1;exitX=0;exitY=0;exitDx=0;exitDy=0;fontSize=34;endArrow=none;endFill=0;startArrow=classic;startFill=1;dashed=1;entryX=1;entryY=1;entryDx=0;entryDy=0;" edge="1" parent="dba63wQ86pWpbAEEDj6c-1" source="dba63wQ86pWpbAEEDj6c-6" target="dba63wQ86pWpbAEEDj6c-7">
          <mxGeometry relative="1" as="geometry">
            <mxPoint x="330" y="190" as="targetPoint"/>
          </mxGeometry>
        </mxCell>
        <mxCell id="dba63wQ86pWpbAEEDj6c-6" value="&lt;font style=&quot;font-size: 23px&quot;&gt;A&lt;span style=&quot;background-color: rgb(255 , 255 , 255) ; font-size: 23px&quot;&gt;×&lt;sub style=&quot;font-size: 23px&quot;&gt;c&lt;/sub&gt;B&lt;/span&gt;&lt;/font&gt;" style="text;html=1;strokeColor=none;fillColor=none;align=center;verticalAlign=middle;whiteSpace=wrap;rounded=0;fontSize=23;fontColor=#EA6B66;direction=east;" vertex="1" parent="dba63wQ86pWpbAEEDj6c-1">
          <mxGeometry x="560" y="240" width="40" height="40" as="geometry"/>
        </mxCell>
        <mxCell id="dba63wQ86pWpbAEEDj6c-7" value="Q" style="text;html=1;strokeColor=none;fillColor=none;align=center;verticalAlign=middle;whiteSpace=wrap;rounded=0;fontSize=34;direction=east;" vertex="1" parent="dba63wQ86pWpbAEEDj6c-1">
          <mxGeometry x="480" y="160" width="40" height="40" as="geometry"/>
        </mxCell>
        <mxCell id="dba63wQ86pWpbAEEDj6c-8" value="&lt;span style=&quot;font-size: 24px&quot;&gt;p&lt;/span&gt;" style="text;html=1;strokeColor=none;fillColor=none;align=center;verticalAlign=middle;whiteSpace=wrap;rounded=0;fontSize=34;fontColor=#EA6B66;direction=east;" vertex="1" parent="dba63wQ86pWpbAEEDj6c-1">
          <mxGeometry x="620" y="229" width="40" height="20" as="geometry"/>
        </mxCell>
        <mxCell id="dba63wQ86pWpbAEEDj6c-9" value="&lt;font style=&quot;font-size: 24px&quot;&gt;n&lt;/font&gt;" style="text;html=1;strokeColor=none;fillColor=none;align=center;verticalAlign=middle;whiteSpace=wrap;rounded=0;fontSize=34;direction=east;" vertex="1" parent="dba63wQ86pWpbAEEDj6c-1">
          <mxGeometry x="495" y="260" width="40" height="20" as="geometry"/>
        </mxCell>
        <mxCell id="dba63wQ86pWpbAEEDj6c-10" value="&lt;span style=&quot;font-size: 24px&quot;&gt;m&lt;/span&gt;" style="text;html=1;strokeColor=none;fillColor=none;align=center;verticalAlign=middle;whiteSpace=wrap;rounded=0;fontSize=34;direction=east;" vertex="1" parent="dba63wQ86pWpbAEEDj6c-1">
          <mxGeometry x="580" y="180" width="50" height="20" as="geometry"/>
        </mxCell>
        <mxCell id="dba63wQ86pWpbAEEDj6c-11" style="edgeStyle=none;rounded=0;orthogonalLoop=1;jettySize=auto;html=1;entryX=0.5;entryY=1;entryDx=0;entryDy=0;fontSize=34;endArrow=none;endFill=0;startArrow=classic;startFill=1;exitX=0;exitY=1;exitDx=0;exitDy=0;" edge="1" parent="dba63wQ86pWpbAEEDj6c-1" source="dba63wQ86pWpbAEEDj6c-12" target="dba63wQ86pWpbAEEDj6c-7">
          <mxGeometry relative="1" as="geometry">
            <mxPoint x="410" y="200" as="sourcePoint"/>
          </mxGeometry>
        </mxCell>
        <mxCell id="dba63wQ86pWpbAEEDj6c-12" value="B" style="text;html=1;strokeColor=none;fillColor=none;align=center;verticalAlign=middle;whiteSpace=wrap;rounded=0;fontSize=34;direction=south;fontColor=#7EA6E0;" vertex="1" parent="dba63wQ86pWpbAEEDj6c-1">
          <mxGeometry x="560" y="360" width="40" height="40" as="geometry"/>
        </mxCell>
        <mxCell id="dba63wQ86pWpbAEEDj6c-13" style="edgeStyle=orthogonalEdgeStyle;rounded=0;orthogonalLoop=1;jettySize=auto;html=1;exitX=0.5;exitY=1;exitDx=0;exitDy=0;fontSize=34;strokeColor=#EA6B66;fontColor=#EA6B66;entryX=0;entryY=0.5;entryDx=0;entryDy=0;" edge="1" parent="dba63wQ86pWpbAEEDj6c-1" source="dba63wQ86pWpbAEEDj6c-6" target="dba63wQ86pWpbAEEDj6c-12">
          <mxGeometry relative="1" as="geometry">
            <mxPoint x="210.28571428571433" y="150.28571428571428" as="sourcePoint"/>
            <mxPoint x="370" y="160" as="targetPoint"/>
          </mxGeometry>
        </mxCell>
        <mxCell id="dba63wQ86pWpbAEEDj6c-14" value="&lt;span style=&quot;font-size: 24px&quot;&gt;q&lt;/span&gt;" style="text;html=1;strokeColor=none;fillColor=none;align=center;verticalAlign=middle;whiteSpace=wrap;rounded=0;fontSize=34;fontColor=#EA6B66;direction=east;" vertex="1" parent="dba63wQ86pWpbAEEDj6c-1">
          <mxGeometry x="550" y="290" width="40" height="20" as="geometry"/>
        </mxCell>
        <mxCell id="dba63wQ86pWpbAEEDj6c-15" value="&lt;span style=&quot;font-size: 24px&quot;&gt;u&lt;/span&gt;" style="text;html=1;strokeColor=none;fillColor=none;align=center;verticalAlign=middle;whiteSpace=wrap;rounded=0;fontSize=34;direction=east;" vertex="1" parent="dba63wQ86pWpbAEEDj6c-1">
          <mxGeometry x="535" y="192" width="15" height="20" as="geometry"/>
        </mxCell>
        <mxCell id="dba63wQ86pWpbAEEDj6c-16" value="C" style="text;html=1;strokeColor=none;fillColor=none;align=center;verticalAlign=middle;whiteSpace=wrap;rounded=0;fontSize=34;fontColor=#7EA6E0;direction=east;" vertex="1" parent="dba63wQ86pWpbAEEDj6c-1">
          <mxGeometry x="680" y="360" width="40" height="40" as="geometry"/>
        </mxCell>
        <mxCell id="dba63wQ86pWpbAEEDj6c-17" style="edgeStyle=orthogonalEdgeStyle;rounded=0;orthogonalLoop=1;jettySize=auto;html=1;exitX=0.5;exitY=1;exitDx=0;exitDy=0;fontSize=34;strokeColor=#7EA6E0;fontColor=#EA6B66;entryX=0.5;entryY=0;entryDx=0;entryDy=0;" edge="1" parent="dba63wQ86pWpbAEEDj6c-1" source="dba63wQ86pWpbAEEDj6c-4" target="dba63wQ86pWpbAEEDj6c-16">
          <mxGeometry relative="1" as="geometry">
            <mxPoint x="689.8571428571429" y="270.28571428571433" as="targetPoint"/>
            <mxPoint x="609.8571428571429" y="270.28571428571433" as="sourcePoint"/>
          </mxGeometry>
        </mxCell>
        <mxCell id="dba63wQ86pWpbAEEDj6c-18" style="edgeStyle=orthogonalEdgeStyle;rounded=0;orthogonalLoop=1;jettySize=auto;html=1;exitX=0.5;exitY=0;exitDx=0;exitDy=0;fontSize=34;strokeColor=#7EA6E0;fontColor=#EA6B66;entryX=0;entryY=0.5;entryDx=0;entryDy=0;" edge="1" parent="dba63wQ86pWpbAEEDj6c-1" source="dba63wQ86pWpbAEEDj6c-12" target="dba63wQ86pWpbAEEDj6c-16">
          <mxGeometry relative="1" as="geometry">
            <mxPoint x="709.8571428571429" y="370.28571428571433" as="targetPoint"/>
            <mxPoint x="709.8571428571429" y="290.28571428571433" as="sourcePoint"/>
          </mxGeometry>
        </mxCell>
        <mxCell id="dba63wQ86pWpbAEEDj6c-19" value="&lt;span style=&quot;font-size: 24px&quot;&gt;f&lt;/span&gt;" style="text;html=1;strokeColor=none;fillColor=none;align=center;verticalAlign=middle;whiteSpace=wrap;rounded=0;fontSize=34;fontColor=#7EA6E0;direction=east;" vertex="1" parent="dba63wQ86pWpbAEEDj6c-1">
          <mxGeometry x="670" y="300" width="40" height="20" as="geometry"/>
        </mxCell>
        <mxCell id="dba63wQ86pWpbAEEDj6c-20" value="&lt;span style=&quot;font-size: 24px&quot;&gt;g&lt;/span&gt;" style="text;html=1;strokeColor=none;fillColor=none;align=center;verticalAlign=middle;whiteSpace=wrap;rounded=0;fontSize=34;fontColor=#7EA6E0;direction=east;" vertex="1" parent="dba63wQ86pWpbAEEDj6c-1">
          <mxGeometry x="620" y="348" width="40" height="20" as="geometry"/>
        </mxCell>
      </root>
    </mxGraphModel>
  </diagram>
  <diagram id="wx2qCHQLGfLhlPP21Dq0" name="pushout">
    <mxGraphModel dx="707" dy="366" grid="1" gridSize="10" guides="1" tooltips="1" connect="1" arrows="1" fold="1" page="1" pageScale="1" pageWidth="827" pageHeight="1169" math="0" shadow="0">
      <root>
        <mxCell id="bjKUfvYqlHCf_bKUxWva-0"/>
        <mxCell id="bjKUfvYqlHCf_bKUxWva-1" parent="bjKUfvYqlHCf_bKUxWva-0"/>
        <mxCell id="bjKUfvYqlHCf_bKUxWva-2" style="edgeStyle=orthogonalEdgeStyle;rounded=0;orthogonalLoop=1;jettySize=auto;html=1;fontSize=34;strokeColor=#EA6B66;fontColor=#EA6B66;entryX=0;entryY=0.5;entryDx=0;entryDy=0;startArrow=classic;startFill=1;endArrow=none;endFill=0;" edge="1" parent="bjKUfvYqlHCf_bKUxWva-1" target="bjKUfvYqlHCf_bKUxWva-4">
          <mxGeometry relative="1" as="geometry">
            <mxPoint x="230" y="170" as="targetPoint"/>
            <mxPoint x="610" y="260" as="sourcePoint"/>
          </mxGeometry>
        </mxCell>
        <mxCell id="bjKUfvYqlHCf_bKUxWva-3" style="rounded=0;orthogonalLoop=1;jettySize=auto;html=1;fontSize=34;endArrow=classic;endFill=1;startArrow=none;startFill=0;exitX=0;exitY=0;exitDx=0;exitDy=0;entryX=1;entryY=0.5;entryDx=0;entryDy=0;" edge="1" parent="bjKUfvYqlHCf_bKUxWva-1" source="bjKUfvYqlHCf_bKUxWva-4" target="bjKUfvYqlHCf_bKUxWva-7">
          <mxGeometry relative="1" as="geometry">
            <mxPoint x="190" y="210" as="sourcePoint"/>
            <mxPoint x="240" y="250" as="targetPoint"/>
          </mxGeometry>
        </mxCell>
        <mxCell id="bjKUfvYqlHCf_bKUxWva-4" value="A" style="text;html=1;strokeColor=none;fillColor=none;align=center;verticalAlign=middle;whiteSpace=wrap;rounded=0;fontSize=34;fontColor=#7EA6E0;direction=east;" vertex="1" parent="bjKUfvYqlHCf_bKUxWva-1">
          <mxGeometry x="680" y="240" width="40" height="40" as="geometry"/>
        </mxCell>
        <mxCell id="bjKUfvYqlHCf_bKUxWva-5" style="rounded=0;orthogonalLoop=1;jettySize=auto;html=1;exitX=0;exitY=0;exitDx=0;exitDy=0;fontSize=34;endArrow=classic;endFill=1;startArrow=none;startFill=0;dashed=1;entryX=1;entryY=1;entryDx=0;entryDy=0;" edge="1" parent="bjKUfvYqlHCf_bKUxWva-1" source="bjKUfvYqlHCf_bKUxWva-6" target="bjKUfvYqlHCf_bKUxWva-7">
          <mxGeometry relative="1" as="geometry">
            <mxPoint x="330" y="190" as="targetPoint"/>
          </mxGeometry>
        </mxCell>
        <mxCell id="bjKUfvYqlHCf_bKUxWva-6" value="&lt;font style=&quot;font-size: 23px&quot;&gt;A&lt;span style=&quot;background-color: rgb(255 , 255 , 255) ; font-size: 23px&quot;&gt;+&lt;sub style=&quot;font-size: 23px&quot;&gt;c&lt;/sub&gt;B&lt;/span&gt;&lt;/font&gt;" style="text;html=1;strokeColor=none;fillColor=none;align=center;verticalAlign=middle;whiteSpace=wrap;rounded=0;fontSize=23;fontColor=#EA6B66;direction=east;" vertex="1" parent="bjKUfvYqlHCf_bKUxWva-1">
          <mxGeometry x="560" y="240" width="40" height="40" as="geometry"/>
        </mxCell>
        <mxCell id="bjKUfvYqlHCf_bKUxWva-7" value="Q" style="text;html=1;strokeColor=none;fillColor=none;align=center;verticalAlign=middle;whiteSpace=wrap;rounded=0;fontSize=34;direction=east;" vertex="1" parent="bjKUfvYqlHCf_bKUxWva-1">
          <mxGeometry x="480" y="160" width="40" height="40" as="geometry"/>
        </mxCell>
        <mxCell id="bjKUfvYqlHCf_bKUxWva-8" value="&lt;span style=&quot;font-size: 24px&quot;&gt;p&lt;/span&gt;" style="text;html=1;strokeColor=none;fillColor=none;align=center;verticalAlign=middle;whiteSpace=wrap;rounded=0;fontSize=34;fontColor=#EA6B66;direction=east;" vertex="1" parent="bjKUfvYqlHCf_bKUxWva-1">
          <mxGeometry x="620" y="229" width="40" height="20" as="geometry"/>
        </mxCell>
        <mxCell id="bjKUfvYqlHCf_bKUxWva-9" value="&lt;font style=&quot;font-size: 24px&quot;&gt;n&lt;/font&gt;" style="text;html=1;strokeColor=none;fillColor=none;align=center;verticalAlign=middle;whiteSpace=wrap;rounded=0;fontSize=34;direction=east;" vertex="1" parent="bjKUfvYqlHCf_bKUxWva-1">
          <mxGeometry x="495" y="260" width="40" height="20" as="geometry"/>
        </mxCell>
        <mxCell id="bjKUfvYqlHCf_bKUxWva-10" value="&lt;span style=&quot;font-size: 24px&quot;&gt;m&lt;/span&gt;" style="text;html=1;strokeColor=none;fillColor=none;align=center;verticalAlign=middle;whiteSpace=wrap;rounded=0;fontSize=34;direction=east;" vertex="1" parent="bjKUfvYqlHCf_bKUxWva-1">
          <mxGeometry x="580" y="180" width="50" height="20" as="geometry"/>
        </mxCell>
        <mxCell id="bjKUfvYqlHCf_bKUxWva-11" style="edgeStyle=none;rounded=0;orthogonalLoop=1;jettySize=auto;html=1;entryX=0.5;entryY=1;entryDx=0;entryDy=0;fontSize=34;endArrow=classic;endFill=1;startArrow=none;startFill=0;exitX=0;exitY=1;exitDx=0;exitDy=0;" edge="1" parent="bjKUfvYqlHCf_bKUxWva-1" source="bjKUfvYqlHCf_bKUxWva-12" target="bjKUfvYqlHCf_bKUxWva-7">
          <mxGeometry relative="1" as="geometry">
            <mxPoint x="410" y="200" as="sourcePoint"/>
          </mxGeometry>
        </mxCell>
        <mxCell id="bjKUfvYqlHCf_bKUxWva-12" value="B" style="text;html=1;strokeColor=none;fillColor=none;align=center;verticalAlign=middle;whiteSpace=wrap;rounded=0;fontSize=34;direction=south;fontColor=#7EA6E0;" vertex="1" parent="bjKUfvYqlHCf_bKUxWva-1">
          <mxGeometry x="560" y="360" width="40" height="40" as="geometry"/>
        </mxCell>
        <mxCell id="bjKUfvYqlHCf_bKUxWva-13" style="edgeStyle=orthogonalEdgeStyle;rounded=0;orthogonalLoop=1;jettySize=auto;html=1;exitX=0.5;exitY=1;exitDx=0;exitDy=0;fontSize=34;strokeColor=#EA6B66;fontColor=#EA6B66;entryX=0;entryY=0.5;entryDx=0;entryDy=0;startArrow=classic;startFill=1;endArrow=none;endFill=0;" edge="1" parent="bjKUfvYqlHCf_bKUxWva-1" source="bjKUfvYqlHCf_bKUxWva-6" target="bjKUfvYqlHCf_bKUxWva-12">
          <mxGeometry relative="1" as="geometry">
            <mxPoint x="210.28571428571433" y="150.28571428571428" as="sourcePoint"/>
            <mxPoint x="370" y="160" as="targetPoint"/>
          </mxGeometry>
        </mxCell>
        <mxCell id="bjKUfvYqlHCf_bKUxWva-14" value="&lt;span style=&quot;font-size: 24px&quot;&gt;q&lt;/span&gt;" style="text;html=1;strokeColor=none;fillColor=none;align=center;verticalAlign=middle;whiteSpace=wrap;rounded=0;fontSize=34;fontColor=#EA6B66;direction=east;" vertex="1" parent="bjKUfvYqlHCf_bKUxWva-1">
          <mxGeometry x="550" y="290" width="40" height="20" as="geometry"/>
        </mxCell>
        <mxCell id="bjKUfvYqlHCf_bKUxWva-15" value="&lt;span style=&quot;font-size: 24px&quot;&gt;u&lt;/span&gt;" style="text;html=1;strokeColor=none;fillColor=none;align=center;verticalAlign=middle;whiteSpace=wrap;rounded=0;fontSize=34;direction=east;" vertex="1" parent="bjKUfvYqlHCf_bKUxWva-1">
          <mxGeometry x="535" y="192" width="15" height="20" as="geometry"/>
        </mxCell>
        <mxCell id="bjKUfvYqlHCf_bKUxWva-16" value="C" style="text;html=1;strokeColor=none;fillColor=none;align=center;verticalAlign=middle;whiteSpace=wrap;rounded=0;fontSize=34;fontColor=#7EA6E0;direction=east;" vertex="1" parent="bjKUfvYqlHCf_bKUxWva-1">
          <mxGeometry x="680" y="360" width="40" height="40" as="geometry"/>
        </mxCell>
        <mxCell id="bjKUfvYqlHCf_bKUxWva-17" style="edgeStyle=orthogonalEdgeStyle;rounded=0;orthogonalLoop=1;jettySize=auto;html=1;exitX=0.5;exitY=1;exitDx=0;exitDy=0;fontSize=34;strokeColor=#7EA6E0;fontColor=#EA6B66;entryX=0.5;entryY=0;entryDx=0;entryDy=0;endArrow=none;endFill=0;startArrow=classic;startFill=1;" edge="1" parent="bjKUfvYqlHCf_bKUxWva-1" source="bjKUfvYqlHCf_bKUxWva-4" target="bjKUfvYqlHCf_bKUxWva-16">
          <mxGeometry relative="1" as="geometry">
            <mxPoint x="689.8571428571429" y="270.28571428571433" as="targetPoint"/>
            <mxPoint x="609.8571428571429" y="270.28571428571433" as="sourcePoint"/>
          </mxGeometry>
        </mxCell>
        <mxCell id="bjKUfvYqlHCf_bKUxWva-18" style="edgeStyle=orthogonalEdgeStyle;rounded=0;orthogonalLoop=1;jettySize=auto;html=1;exitX=0.5;exitY=0;exitDx=0;exitDy=0;fontSize=34;strokeColor=#7EA6E0;fontColor=#EA6B66;entryX=0;entryY=0.5;entryDx=0;entryDy=0;endArrow=none;endFill=0;startArrow=classic;startFill=1;" edge="1" parent="bjKUfvYqlHCf_bKUxWva-1" source="bjKUfvYqlHCf_bKUxWva-12" target="bjKUfvYqlHCf_bKUxWva-16">
          <mxGeometry relative="1" as="geometry">
            <mxPoint x="709.8571428571429" y="370.28571428571433" as="targetPoint"/>
            <mxPoint x="709.8571428571429" y="290.28571428571433" as="sourcePoint"/>
          </mxGeometry>
        </mxCell>
        <mxCell id="bjKUfvYqlHCf_bKUxWva-19" value="&lt;span style=&quot;font-size: 24px&quot;&gt;f&lt;/span&gt;" style="text;html=1;strokeColor=none;fillColor=none;align=center;verticalAlign=middle;whiteSpace=wrap;rounded=0;fontSize=34;fontColor=#7EA6E0;direction=east;" vertex="1" parent="bjKUfvYqlHCf_bKUxWva-1">
          <mxGeometry x="670" y="300" width="40" height="20" as="geometry"/>
        </mxCell>
        <mxCell id="bjKUfvYqlHCf_bKUxWva-20" value="&lt;span style=&quot;font-size: 24px&quot;&gt;g&lt;/span&gt;" style="text;html=1;strokeColor=none;fillColor=none;align=center;verticalAlign=middle;whiteSpace=wrap;rounded=0;fontSize=34;fontColor=#7EA6E0;direction=east;" vertex="1" parent="bjKUfvYqlHCf_bKUxWva-1">
          <mxGeometry x="620" y="348" width="40" height="20" as="geometry"/>
        </mxCell>
      </root>
    </mxGraphModel>
  </diagram>
</mxfile>
